<svg width="1440" height="800" viewBox="0 0 1440 800" fill="none" xmlns="http://www.w3.org/2000/svg">
<path opacity="0.05" d="M215.288 813.434L191.439 729.06L-22.8839 789.641L-36.2884 742.219L60.0238 381.792L212.143 338.793L288.219 607.927L344.879 591.912L369.425 678.749L312.765 694.765L336.614 779.139L215.288 813.434ZM71.4328 669.205L169.972 641.352L120.706 467.061L71.4328 669.205Z" fill="#009EC4"/>
<path opacity="0.05" d="M721.645 513.92C777.965 513.92 800.365 472.32 800.365 387.84V369.28C800.365 285.44 776.045 243.2 720.365 243.2C665.325 243.2 640.365 284.8 640.365 369.28V388.48C640.365 473.6 665.325 513.92 721.645 513.92ZM717.805 615.68C589.805 615.68 509.165 533.12 509.165 389.12V369.92C509.165 225.28 599.405 144 720.365 144C840.685 144 931.565 218.88 931.565 367.36V385.28C931.565 530.56 848.365 615.68 717.805 615.68Z" fill="#009EC4"/>
<path opacity="0.05" d="M1235.37 457.726L1267.73 376.235L1060.73 294.042L1078.92 248.24L1374.51 20.618L1521.43 78.9567L1418.22 338.894L1472.94 360.624L1439.64 444.494L1384.91 422.765L1352.55 504.255L1235.37 457.726ZM1208.84 255.756L1304.01 293.546L1370.85 125.211L1208.84 255.756Z" fill="#009EC4"/>
</svg>
