<svg width="46" height="46" viewBox="0 0 46 46" fill="none" xmlns="http://www.w3.org/2000/svg">
<g clip-path="url(#clip0_22_5592)">
<rect width="46" height="46" rx="23" fill="#96D7E7" fill-opacity="0.5"/>
<path d="M21.812 33.1165V57.7616L9.36621 50.7193V26.0742L12.4762 27.8334L21.812 33.1165Z" fill="#096378"/>
<path d="M21.8115 33.1167V57.7618L37.3702 48.9604V24.3125L21.8115 33.1167ZM26.2765 49.0136L23.1664 50.7728V47.2517L25.8734 45.7194L26.2765 45.4925V49.0136ZM26.2765 43.2655L23.1664 45.0247V41.5036L25.8734 39.9713L26.2765 39.7444V43.2655ZM26.2765 37.5174L23.1664 39.2766V35.7555L25.8734 34.2232L26.2765 33.9963V37.5174ZM31.1444 46.3721L28.0344 48.134V44.6129L30.7414 43.0806L31.1444 42.8509V46.3721ZM31.1444 40.624L28.0344 42.3859V38.8648L30.7414 37.3326L31.1444 37.1029V40.624ZM31.1444 34.8759L28.0344 36.6378V33.1167L30.7414 31.5845L31.1444 31.3548V34.8759ZM36.0153 43.7305L32.9024 45.4925V41.9714L35.6122 40.4391L36.0153 40.2122V43.7305ZM36.0153 37.9824L32.9024 39.7444V36.2233L35.6122 34.691L36.0153 34.4641V37.9824ZM36.0153 32.2343L32.9024 33.9963V30.4752L35.6122 28.9429L36.0153 28.716V32.2343Z" fill="#009EC4"/>
<path d="M28.0348 11.9905V22.5539L24.9219 24.3158V10.2285L28.0348 11.9905Z" fill="#043440"/>
<path d="M18.6989 10.2305V24.3122L15.5889 22.553V11.9896L18.6989 10.2305Z" fill="#043440"/>
<path d="M9.36581 15.5098V19.0309L6.25293 17.2717L9.36581 15.5098Z" fill="#043440"/>
<path d="M21.8116 26.0729V29.594L18.6987 27.8321L15.5887 26.0729L12.4758 24.3109L9.36581 22.5518L6.25293 20.7898V17.2715L9.36581 19.0306L12.4758 20.7898L15.5887 22.5518L18.6987 24.3109L21.8116 26.0729Z" fill="#843600"/>
<path d="M15.5885 11.9902V22.5536L12.4756 20.7917V13.7522L15.5885 11.9902Z" fill="#699EA7"/>
<path d="M40.4802 19.0306L37.3702 20.7898L34.2573 22.5518L31.1445 24.3137L28.0344 26.0729L21.8115 29.594V26.0729L24.9215 24.3137L28.0344 22.5518L31.1445 20.7926L34.2573 19.0334L37.3702 17.2715L40.4802 19.0306Z" fill="#973E00"/>
<path d="M24.9215 10.2285V24.3158L21.8115 26.075V11.9905L24.9215 10.2285Z" fill="#93B1B6"/>
<path d="M37.3707 17.2717L34.2578 19.0337V15.5098L37.3707 17.2717Z" fill="#043440"/>
<path d="M40.4802 19.0312V22.5524L37.3702 24.3115L21.8115 33.1158V29.5946L28.0344 26.0735L31.1445 24.3143L34.2573 22.5524L37.3702 20.7904L40.4802 19.0312Z" fill="#DF752B"/>
<path d="M21.8116 29.5952V33.1164L12.4758 27.8333L9.36581 26.0741L6.25293 24.3121V20.791L9.36581 22.553L12.4758 24.3121L15.5887 26.0741L18.6987 27.8333L21.8116 29.5952Z" fill="#973E00"/>
<path d="M31.1442 10.2307V20.7941L28.0342 22.5533V8.46875L31.1442 10.2307Z" fill="#93B1B6"/>
<path d="M34.2574 8.46875V19.0349L31.1445 20.7941V10.2307L34.2574 8.46875Z" fill="#CEE3E7"/>
<path d="M34.2571 8.46815L31.1442 10.2301L28.0342 8.46815L31.1442 6.70898L34.2571 8.46815Z" fill="#D9D9D9"/>
<path d="M21.8121 11.9905V26.075L18.6992 24.313V10.2313L18.7021 10.2285L21.8121 11.9905Z" fill="#699EA7"/>
<path d="M18.6992 10.2309V10.2285H18.7016" stroke="black" stroke-miterlimit="10"/>
<path d="M24.9212 10.2279L21.8112 11.9899L18.7012 10.2279L21.8112 8.46875L24.9212 10.2279Z" fill="#CEE3E7"/>
<path d="M18.7016 10.2285H18.6992" stroke="black" stroke-miterlimit="10"/>
<path d="M12.4762 13.7494V20.7917L9.36621 19.0325V11.9902L12.4762 13.7494Z" fill="#5D8991"/>
<path d="M26.277 33.9961V37.5172L23.167 39.2764V38.8226L25.874 37.2903V34.223L26.277 33.9961Z" fill="#93B1B6"/>
<path d="M25.874 34.2227V37.29L23.167 38.8223V35.7549L25.874 34.2227Z" fill="#CEE3E7"/>
<path d="M31.1442 31.3535V34.8746L28.0342 36.6366V36.18L30.7412 34.6477V31.5832L31.1442 31.3535Z" fill="#93B1B6"/>
<path d="M30.7412 31.584V34.6485L28.0342 36.1808V33.1163L30.7412 31.584Z" fill="#CEE3E7"/>
<path d="M36.0152 28.7148V32.2332L32.9023 33.9951V33.5413L35.6122 32.0091V28.9417L36.0152 28.7148Z" fill="#93B1B6"/>
<path d="M35.6122 28.9414V32.0087L32.9023 33.541V30.4737L35.6122 28.9414Z" fill="#CEE3E7"/>
<path d="M26.277 39.7441V43.2653L23.167 45.0244V44.5706L25.874 43.0384V39.971L26.277 39.7441Z" fill="#93B1B6"/>
<path d="M25.874 39.9707V43.038L23.167 44.5703V41.503L25.874 39.9707Z" fill="#CEE3E7"/>
<path d="M31.1442 37.1016V40.6227L28.0342 42.3847V41.9281L30.7412 40.3958V37.3313L31.1442 37.1016Z" fill="#93B1B6"/>
<path d="M30.7412 37.332V40.3966L28.0342 41.9288V38.8643L30.7412 37.332Z" fill="#CEE3E7"/>
<path d="M36.0152 34.4629V37.9812L32.9023 39.7432V39.2894L35.6122 37.7571V34.6898L36.0152 34.4629Z" fill="#93B1B6"/>
<path d="M35.6122 34.6895V37.7568L32.9023 39.2891V36.2217L35.6122 34.6895Z" fill="#CEE3E7"/>
<path d="M26.277 45.4922V49.0133L23.167 50.7725V50.3187L25.874 48.7864V45.7191L26.277 45.4922Z" fill="#93B1B6"/>
<path d="M25.874 45.7188V48.7861L23.167 50.3183V47.251L25.874 45.7188Z" fill="#CEE3E7"/>
<path d="M31.1442 42.8496V46.3707L28.0342 48.1327V47.6761L30.7412 46.1438V43.0793L31.1442 42.8496Z" fill="#93B1B6"/>
<path d="M30.7412 43.0801V46.1446L28.0342 47.6769V44.6123L30.7412 43.0801Z" fill="#CEE3E7"/>
<path d="M36.0152 40.2109V43.7293L32.9023 45.4912V45.0374L35.6122 43.5052V40.4378L36.0152 40.2109Z" fill="#93B1B6"/>
<path d="M35.6122 40.4395V43.5068L32.9023 45.0391V41.9717L35.6122 40.4395Z" fill="#CEE3E7"/>
<path d="M25.6493 28.8615L19.2188 25.0616L25.6493 21.2617L31.7876 25.0616L25.6493 28.8615Z" fill="#93B1B6"/>
</g>
<defs>
<clipPath id="clip0_22_5592">
<rect width="46" height="46" rx="23" fill="white"/>
</clipPath>
</defs>
</svg>
