<svg width="172" height="109" viewBox="0 0 172 109" fill="none" xmlns="http://www.w3.org/2000/svg">
<path d="M91.3251 121.695C93.7907 125.605 96.9275 129.049 100.531 132.054C120.081 148.351 153.783 151.59 173.946 142.807C178.6 140.779 182.539 138.109 185.414 134.797C203.009 114.576 210.449 61.09 173.99 40.8396C96.4898 -2.21443 72.344 91.7574 91.3251 121.695Z" fill="#EE95C1"/>
<path d="M100.531 132.054C120.081 148.351 153.783 151.59 173.946 142.807C173.654 140.881 172.851 138.999 171.436 137.278C171.436 137.278 176.47 131.033 178.833 115.772C181.824 96.4265 178.162 90.2989 178.162 90.2989C182.116 86.2284 185.384 81.8077 186.989 77.139C189.206 70.6904 185.88 65.5111 181.868 63.6436C177.856 61.7761 173.479 64.271 169.437 65.1755H169.394C169.408 65.2777 169.423 65.3798 169.423 65.4819C169.613 68.1226 166.855 69.0856 160.684 68.7208C160.669 68.75 156.861 76.4241 154.41 81.3846C153.943 82.3184 153.535 83.1645 153.199 83.8357C148.691 83.5147 136.115 78.5688 134.51 78.0436C134.627 77.8102 134.962 77.1244 135.429 76.1469C136.917 73.0248 139.791 66.8971 141.805 62.6078C137.457 60.2296 123.962 52.4971 119.264 53.9269C114.566 55.3713 110.889 59.0041 113.18 71.9014C115.295 83.7773 119.891 97.4916 120.606 99.6071C113.136 111.6 102.632 128.757 102.632 128.757L100.531 132.054Z" fill="#FFFEF2"/>
<path d="M135.415 76.1186C136.903 72.9964 139.777 66.8688 141.791 62.5794C143.06 59.8658 143.994 57.8816 143.994 57.8816C143.994 57.8816 137.064 50.3971 137.064 49.6093C137.064 48.8214 144.183 49.3612 151.668 50.6014C153.375 54.0591 159.43 55.5618 159.43 55.5618C158.029 59.9825 159.896 66.2123 162.099 64.9867C162.727 64.6366 163.354 63.9655 163.865 63.1339C166.899 62.6816 169.059 63.163 169.394 65.1472C169.409 65.2494 169.423 65.3515 169.423 65.4536C169.613 68.0943 166.856 69.0573 160.684 68.6925C160.67 68.7217 156.862 76.3958 154.411 81.3563C153.944 82.29 153.535 83.1362 153.2 83.8074C148.692 83.4864 136.115 78.5405 134.51 78.0153C134.613 77.7964 134.934 77.1107 135.415 76.1186ZM152.966 60.4494C153.317 60.5807 153.71 60.4056 153.856 60.0554L154.469 58.4214C154.6 58.0713 154.425 57.6773 154.075 57.5314C154.002 57.5023 153.915 57.4877 153.842 57.4877C153.565 57.4877 153.302 57.6627 153.2 57.9399L152.587 59.574C152.441 59.9241 152.616 60.3181 152.966 60.4494ZM149.713 58.0129C150.063 58.1442 150.457 57.9691 150.603 57.619L151.216 55.9849C151.347 55.6348 151.172 55.2409 150.822 55.095C150.749 55.0658 150.661 55.0512 150.574 55.0512C150.296 55.0512 150.034 55.2263 149.932 55.4889L149.319 57.1229C149.188 57.4877 149.363 57.8816 149.713 58.0129Z" fill="#FFFEF2"/>
<path d="M149.319 57.1225C149.187 57.4727 149.362 57.8666 149.713 58.0125C150.063 58.1438 150.457 57.9687 150.602 57.6186L151.23 55.9845C151.361 55.6344 151.186 55.2404 150.836 55.0945C150.763 55.0654 150.675 55.0508 150.588 55.0508C150.311 55.0508 150.048 55.2259 149.946 55.4885L149.319 57.1225Z" fill="#FFFEF2"/>
<path d="M152.573 59.56C152.441 59.9102 152.616 60.3041 152.966 60.45C153.317 60.5813 153.71 60.4062 153.856 60.0561L154.484 58.422C154.615 58.0719 154.44 57.6779 154.09 57.532C154.017 57.5029 153.929 57.4883 153.842 57.4883C153.565 57.4883 153.302 57.6634 153.2 57.926L152.573 59.56Z" fill="#FFFEF2"/>
<path d="M152.981 60.4498C153.331 60.5811 153.725 60.406 153.871 60.0559L154.484 58.4218C154.615 58.0717 154.44 57.6778 154.09 57.5319C153.74 57.4006 153.346 57.5756 153.2 57.9258L152.587 59.5598C152.441 59.9246 152.616 60.3185 152.981 60.4498Z" fill="#202D37"/>
<path d="M149.712 58.0123C150.063 58.1436 150.457 57.9685 150.602 57.6184L151.215 55.9843C151.347 55.6342 151.171 55.2403 150.821 55.0944C150.471 54.9631 150.077 55.1381 149.931 55.4883L149.319 57.1223C149.187 57.4871 149.362 57.881 149.712 58.0123Z" fill="#202D37"/>
<path d="M97.1025 6.39462C81.1852 5.06696 48.84 4.7314 47.3956 6.39462C45.9367 8.05784 43.3543 51.8559 45.2218 56.5246C47.0893 61.1933 85.1828 61.8206 92.9591 61.7185C100.75 61.6164 101.888 58.8152 102.399 54.0444C102.924 49.2736 103.639 17.3077 103.639 13.4706C103.639 9.60434 103.332 6.90525 97.1025 6.39462Z" fill="#FFFEF2"/>
<path d="M91.1501 62.23C91.8649 62.23 92.4631 62.23 92.9446 62.2154C96.7817 62.157 99.2473 61.4567 100.75 59.9832C102.151 58.5971 102.618 56.6275 102.895 54.0889C103.42 49.216 104.149 16.8562 104.149 13.4568C104.149 9.37171 103.653 6.42461 97.1464 5.88479C89.4868 5.24285 77.5963 4.80516 66.8291 4.76139C61.4747 4.73221 56.8644 4.81975 53.5088 4.99482C47.6729 5.30121 47.2352 5.79725 47.0018 6.05987C46.8121 6.27871 46.3599 6.78935 45.6596 14.2301C45.2365 18.6799 44.8425 24.3844 44.5362 30.3078C44.259 35.706 43.4711 53.5637 44.7258 56.7151C45.0468 57.5175 46.1848 58.7285 52.2687 59.8227C55.8577 60.4646 60.7598 61.0044 66.8291 61.4129C76.2394 62.0549 86.2042 62.23 91.1501 62.23ZM97.1026 6.39543L97.0589 6.90607C102.851 7.38753 103.128 9.59056 103.128 13.4568C103.128 17.7608 102.384 49.3619 101.888 53.9868C101.407 58.4075 100.56 61.1066 92.9446 61.2087C89.0783 61.2671 77.6255 61.1357 66.9021 60.4063C48.738 59.1807 46.0097 57.1528 45.6887 56.3358C44.9155 54.4099 44.8717 44.3139 45.5574 30.6142C46.2431 17.0313 47.2353 7.69391 47.7751 6.73099C48.3587 6.33707 53.0419 5.70972 67.1355 5.78266C77.7859 5.84102 89.5306 6.27871 97.0589 6.89148L97.1026 6.39543Z" fill="#202D37"/>
<path d="M55.668 7.02184C56.0181 11.1945 53.2898 13.9957 49.657 14.3021C46.0242 14.6085 42.3622 12.3325 42.0121 8.15983C41.6619 3.98719 44.8279 0.325197 48.4607 0.0188148C52.0935 -0.272978 55.3178 2.86379 55.668 7.02184Z" fill="#E89F6B"/>
<path d="M90.0702 28.0757C91.2812 28.0757 92.39 28.0027 93.3821 27.8131C93.5864 27.7693 93.7468 27.6088 93.7906 27.4046C93.8344 27.2003 93.7468 26.9961 93.5718 26.8793C93.528 26.8502 88.8447 23.8301 84.0885 20.8538C74.3718 14.7554 73.832 14.697 73.584 14.6824C73.3068 14.6532 72.767 14.6095 63.0211 19.6575C58.2649 22.1231 53.5816 24.6179 53.5378 24.6471C53.3336 24.7493 53.2314 24.9827 53.2752 25.2161C53.319 25.435 53.5232 25.61 53.742 25.61C53.9025 25.6246 69.2654 26.3541 74.6636 26.6313C76.5165 26.7189 78.6758 26.9961 80.9809 27.2879C84.1031 27.6672 87.3128 28.0757 90.0702 28.0757ZM91.8356 26.9815C88.8447 27.2295 84.9055 26.7334 81.083 26.252C78.7633 25.9602 76.5748 25.683 74.6928 25.5809C70.418 25.362 59.8989 24.8514 55.6241 24.6471C62.5396 20.9705 72.2709 15.9371 73.4673 15.6745C74.6782 16.0976 84.8763 22.517 91.8356 26.9815Z" fill="#202D37"/>
<path d="M13.504 96.5141C13.5332 96.5141 13.5623 96.5141 13.5915 96.4995C13.8687 96.4557 14.0584 96.1931 14.0146 95.9159C13.9271 95.4345 5.66935 47.0844 4.79397 41.6571C3.83105 35.7628 3.52468 32.8741 6.71981 31.8382C8.35385 31.313 15.4736 31.386 24.4462 32.0279C33.5793 32.6844 41.5307 33.6911 44.6675 34.5957C44.9447 34.6686 45.2219 34.5227 45.2948 34.2455C45.3678 33.9683 45.2219 33.6911 44.9447 33.6182C41.0492 32.4948 31.493 31.5173 24.5046 31.0212C17.166 30.496 8.5435 30.175 6.39883 30.8753C2.2116 32.2321 2.86814 36.2589 3.77269 41.8321C4.64807 47.2741 12.9204 95.6095 12.9934 96.1056C13.0517 96.339 13.2706 96.5141 13.504 96.5141Z" fill="#202D37"/>
<path d="M22.6372 95.859C22.6664 95.859 22.6956 95.859 22.7247 95.859C23.0019 95.8152 23.1916 95.5526 23.1478 95.2754C23.0749 94.7793 15.2549 46.1229 14.6567 39.2366C14.5983 38.5801 14.6421 37.6609 15.2111 37.0919C15.6779 36.6104 16.4658 36.3916 17.5454 36.4354C18.4646 36.4791 19.3983 36.5229 20.3466 36.5667C30.1363 37.0481 41.239 37.5734 44.4341 38.3612C44.7113 38.4342 44.9885 38.2591 45.0469 37.9819C45.1198 37.7047 44.9448 37.4275 44.6676 37.3691C41.3703 36.5667 30.7053 36.0415 20.3758 35.5454C19.4275 35.5016 18.4938 35.4579 17.5746 35.4141C16.1886 35.3411 15.1381 35.6767 14.4524 36.377C13.7959 37.0481 13.5187 38.0694 13.6208 39.3241C14.219 46.2542 22.039 94.9398 22.112 95.4359C22.1849 95.6839 22.4038 95.859 22.6372 95.859Z" fill="#202D37"/>
<path d="M33.5059 134.068C33.5205 134.068 33.535 134.068 33.535 134.068C33.6955 134.053 37.4743 133.791 51.6846 131.559C65.7781 129.341 69.1338 128.816 69.1338 122.382C69.1484 110.9 63.2541 80.3344 61.1824 70.5301C61.1241 70.2529 60.8469 70.0779 60.5842 70.1362C60.307 70.1946 60.132 70.4718 60.1903 70.7344C62.7873 83.0335 68.1271 111.833 68.1125 122.367C68.1125 127.736 66.2304 128.232 51.5241 130.537C37.3867 132.755 33.5059 133.032 33.4621 133.032C33.1849 133.047 32.9661 133.295 32.9807 133.572C33.0098 133.849 33.2433 134.068 33.5059 134.068Z" fill="#202D37"/>
<path d="M28.6331 124.454C28.6623 124.454 28.6769 124.454 28.7061 124.454C28.7936 124.439 37.0222 123.374 45.3091 121.974C50.182 121.157 54.1212 120.383 57.0245 119.683C62.0288 118.472 62.9771 117.728 63.2543 117.159C64.0422 115.51 63.1376 105.896 62.2331 98.1195C61.2264 89.497 59.8112 79.649 58.9941 75.7098C58.9358 75.4326 58.6732 75.2575 58.396 75.3159C58.1188 75.3743 57.9437 75.6369 58.0021 75.9141C58.8045 79.8387 60.2343 89.6429 61.2264 98.2362C62.6561 110.579 62.7437 115.875 62.3498 116.707C62.2914 116.823 61.737 117.495 56.7765 118.691C53.9024 119.377 49.9777 120.15 45.134 120.967C36.8617 122.353 28.6623 123.433 28.5747 123.447C28.2975 123.476 28.0933 123.739 28.1371 124.016C28.1662 124.264 28.3851 124.454 28.6331 124.454Z" fill="#202D37"/>
<path d="M17.968 95.0852C17.9972 95.0852 18.0263 95.0852 18.0555 95.0706C18.3327 95.0269 18.5224 94.7643 18.464 94.4871C18.3181 93.67 18.0118 92.0068 17.5887 89.7162C15.196 76.7752 8.82027 42.4167 9.75401 37.3978C9.81237 37.1206 9.62271 36.858 9.34551 36.7996C9.06831 36.7413 8.8057 36.931 8.74734 37.2082C7.88655 41.8185 12.4823 67.788 16.582 89.8913C17.0051 92.1819 17.3114 93.8305 17.4573 94.6475C17.5011 94.9102 17.72 95.0852 17.968 95.0852Z" fill="#202D37"/>
<path d="M8.31211 116.796C3.7212 110.193 5.08406 101.305 11.3561 96.9439C17.6282 92.583 26.4344 94.4005 31.0253 101.003C35.6162 107.606 34.2534 116.494 27.9813 120.855C21.7092 125.216 12.903 123.398 8.31211 116.796Z" fill="#E89F6B"/>
<path d="M74.5032 108.843C74.5324 108.843 74.5761 108.843 74.6053 108.829C81.2728 107.443 86.1166 102.409 87.8965 95.0122C87.9694 94.735 87.7944 94.4578 87.5172 94.3994C87.24 94.3265 86.9628 94.5015 86.9044 94.7787C85.212 101.782 80.66 106.538 74.4011 107.836C74.1239 107.895 73.9488 108.157 74.0072 108.435C74.0509 108.668 74.2698 108.843 74.5032 108.843Z" fill="#202D37"/>
<path d="M98.8387 81.7935C97.7445 80.32 85.3433 78.3504 84.3512 79.5467C83.4467 80.641 81.4041 88.7966 83.4467 89.2488C86.1603 89.847 95.5415 91.5978 96.5919 90.2555C97.6424 88.8841 100.298 83.7486 98.8387 81.7935Z" fill="#FFFEF2"/>
<path d="M94.2578 91.2475C96.1398 91.2475 96.738 90.8974 97.0006 90.5472C97.9343 89.3509 100.984 83.8068 99.262 81.4871C98.197 80.0573 90.3769 78.7734 86.8608 78.6713C84.7599 78.6129 84.2201 78.9193 83.9721 79.2111C83.0383 80.3345 81.5064 86.3746 82.2943 88.6506C82.5569 89.4092 83.0237 89.6573 83.3593 89.7302C84.7015 90.022 87.7362 90.6202 90.6104 90.9703C92.1715 91.1746 93.3532 91.2475 94.2578 91.2475ZM86.3648 79.6925C87.2985 79.6925 88.6407 79.7801 90.4353 80.0281C94.6663 80.5971 98.0657 81.5892 98.445 82.1144C99.5976 83.6609 97.4237 88.3734 96.1982 89.9345C96.1836 89.9637 95.6438 90.5764 90.7125 89.9782C87.8821 89.6281 84.8912 89.0445 83.5636 88.7527C83.4323 88.7235 83.3301 88.5776 83.2426 88.3296C82.5715 86.3892 84.1034 80.6846 84.7307 79.8822C84.8766 79.7801 85.4165 79.6925 86.3648 79.6925Z" fill="#202D37"/>
<path d="M90.6976 86.7834C91.8502 86.7834 93.6447 86.156 96.942 84.9305C97.2046 84.8283 97.3359 84.5365 97.2484 84.2739C97.1463 84.0113 96.8545 83.88 96.5918 83.9676C92.6672 85.4411 90.9165 85.9955 90.2308 85.6745C89.7639 85.4557 87.8089 83.1068 86.277 81.0642C86.1019 80.8454 85.7809 80.787 85.5621 80.9621C85.3432 81.1372 85.2849 81.4581 85.4599 81.677C86.2478 82.7274 88.8885 86.1706 89.7931 86.5937C90.0557 86.7104 90.3475 86.7834 90.6976 86.7834Z" fill="#202D37"/>
<path d="M62.4379 43.0866C62.686 43.0866 62.9048 42.9115 62.934 42.6635C63.0069 42.1966 64.8744 31.196 64.6847 25.5644C64.6701 25.2872 64.4367 25.0684 64.1595 25.0684C63.8823 25.0829 63.6634 25.3164 63.6634 25.5936C63.8531 31.1231 61.9565 42.3717 61.9273 42.4884C61.8835 42.7656 62.0732 43.0282 62.3504 43.072C62.3942 43.0866 62.4233 43.0866 62.4379 43.0866Z" fill="#202D37"/>
<path d="M57.6088 42.6506C57.886 42.6506 58.1048 42.4317 58.1194 42.1545C58.1194 42.0232 58.528 28.6591 59.1261 25.4056C59.1699 25.1284 58.9948 24.8658 58.7176 24.8075C58.4404 24.7491 58.1778 24.9388 58.1194 25.216C57.5213 28.557 57.1128 41.5709 57.0982 42.1253C57.0836 42.4026 57.317 42.636 57.5942 42.6506C57.5942 42.6506 57.5942 42.6506 57.6088 42.6506Z" fill="#202D37"/>
<path d="M63.3567 47.1289C63.5902 47.1289 63.7944 46.9684 63.8528 46.735C63.882 46.6183 63.9112 46.5016 63.9403 46.3849C64.2467 45.1302 64.5093 44.0505 63.9695 43.2043C63.5902 42.6207 62.9191 42.256 61.8103 42.0517C60.1616 41.7308 56.2662 41.191 55.8577 42.9709C55.6242 43.9776 55.5805 46.239 55.5805 46.3411C55.5805 46.6183 55.7993 46.8517 56.0765 46.8663C56.0765 46.8663 56.0765 46.8663 56.0911 46.8663C56.3683 46.8663 56.6018 46.6475 56.6018 46.3703C56.6018 46.3411 56.6455 44.1235 56.8498 43.2189C56.9227 42.8833 58.4546 42.4748 61.6206 43.073C62.4084 43.2189 62.9045 43.4523 63.1087 43.7733C63.4151 44.2548 63.2109 45.101 62.9482 46.166C62.9191 46.2827 62.8899 46.3995 62.8607 46.5162C62.7877 46.7934 62.9628 47.0706 63.24 47.1289C63.2838 47.1143 63.3276 47.1289 63.3567 47.1289Z" fill="#202D37"/>
<path d="M75.1303 43.876C75.3929 43.876 75.6118 43.6718 75.641 43.4092C75.641 43.38 75.9619 40.0536 76.4872 37.1794C77.0853 33.8821 77.4939 30.5411 77.8294 26.3539C77.8586 26.0767 77.6397 25.8287 77.3625 25.7995C77.0853 25.7703 76.8373 25.9892 76.8081 26.2664C76.4726 30.4244 76.0641 33.7363 75.4805 36.9897C74.9552 39.8931 74.6343 43.2633 74.6343 43.2925C74.6051 43.5697 74.8094 43.8177 75.1011 43.8469C75.1011 43.8761 75.1157 43.876 75.1303 43.876Z" fill="#202D37"/>
<path d="M69.1631 43.583C69.382 43.583 69.5862 43.4371 69.6446 43.2183C70.2136 41.3946 70.52 37.6888 70.841 33.7788C71.0598 31.0943 71.2932 28.3223 71.6142 25.9879C71.658 25.7107 71.4537 25.4481 71.1765 25.4044C70.8993 25.3606 70.6367 25.5648 70.5929 25.842C70.2574 28.191 70.0385 30.9922 69.8051 33.6913C69.4841 37.5429 69.1777 41.1903 68.6525 42.9119C68.565 43.1745 68.7254 43.4663 68.9881 43.5539C69.061 43.5685 69.1048 43.583 69.1631 43.583Z" fill="#202D37"/>
<path d="M75.9765 47.9164C76.2245 47.9164 76.4434 47.7267 76.4871 47.4787C76.5309 47.1431 76.5893 46.8367 76.633 46.5595C76.8665 45.0276 76.9978 44.1814 76.5455 43.5541C76.1662 43.0434 75.5096 42.8829 74.8531 42.7954C72.8397 42.489 68.8859 42.5328 68.0252 42.6057C66.6246 42.737 66.6537 45.0568 66.7996 46.793C66.8288 47.0702 67.0768 47.289 67.354 47.2598C67.6312 47.2306 67.8501 46.9826 67.8209 46.7054C67.6166 44.2106 68.0106 43.6416 68.1273 43.627C68.9297 43.5541 72.796 43.5249 74.7072 43.8167C75.2908 43.9042 75.6118 44.0209 75.7285 44.1814C75.9327 44.4586 75.8014 45.2756 75.6264 46.4136C75.5826 46.6908 75.5388 47.0118 75.4805 47.3474C75.4367 47.6246 75.6264 47.8872 75.9181 47.931C75.9327 47.9164 75.9473 47.9164 75.9765 47.9164Z" fill="#202D37"/>
<path d="M87.8961 45.0135C88.115 45.0135 88.3192 44.8676 88.3922 44.6342C89.2967 41.3953 89.9095 31.6056 89.7782 27.5351C89.7636 27.2579 89.5448 27.0391 89.2676 27.0391H89.253C88.9758 27.0537 88.7569 27.2871 88.7569 27.5643C88.9028 31.9704 88.2317 41.4099 87.4001 44.357C87.3271 44.6342 87.4876 44.9114 87.7503 44.9843C87.8086 44.9989 87.8524 45.0135 87.8961 45.0135Z" fill="#202D37"/>
<path d="M82.4693 44.8371C82.7465 44.8371 82.98 44.6036 82.98 44.3264C82.98 42.3131 83.6803 30.1891 84.1763 27.1836C84.2201 26.9064 84.0304 26.6438 83.7532 26.6C83.476 26.5563 83.2134 26.7459 83.1696 27.0231C82.6444 30.1599 81.9587 42.2547 81.9587 44.341C81.9587 44.6036 82.1921 44.8371 82.4693 44.8371Z" fill="#202D37"/>
<path d="M89.3263 48.5442C89.589 48.5442 89.8078 48.3546 89.837 48.0919C90.0558 46.1807 90.1725 45.2178 89.6619 44.6342C89.2096 44.109 88.4801 44.0944 87.1671 44.0506L86.7586 44.036C84.4972 43.9631 83.3446 43.9922 82.3233 44.0214C82.0169 44.036 81.7251 44.036 81.4333 44.036C80.9081 44.036 80.5142 44.1965 80.237 44.5175C79.6826 45.1594 79.8285 46.2682 80.0182 47.6834C80.0473 47.9606 80.3099 48.1649 80.5871 48.1211C80.8643 48.0919 81.0686 47.8293 81.0248 47.5521C80.8935 46.5746 80.7476 45.4658 81.0102 45.174C81.0832 45.1011 81.2291 45.0573 81.4479 45.0573C81.7543 45.0573 82.0461 45.0427 82.3525 45.0427C83.3592 45.0135 84.4972 44.9843 86.7294 45.0573L87.1379 45.0719C88.0279 45.1011 88.7282 45.1157 88.8886 45.3053C89.1075 45.5533 88.9762 46.6767 88.8157 47.9752C88.7865 48.2524 88.9908 48.515 89.268 48.5442C89.2972 48.5442 89.3117 48.5442 89.3263 48.5442Z" fill="#202D37"/>
<path d="M91.9816 51.7092C92.2442 51.7092 92.463 51.5196 92.4922 51.257C92.6819 49.5646 92.7256 48.7184 92.2587 48.164C91.9086 47.7409 91.3688 47.6387 90.6685 47.595C89.1366 47.5074 56.3974 45.9901 55.1573 45.9609C54.6759 45.9609 54.2965 46.0922 54.0339 46.3694C53.5087 46.9239 53.5379 47.9159 53.64 49.2582C53.6546 49.5354 53.9026 49.7542 54.1798 49.7251C54.457 49.7105 54.6759 49.4624 54.6467 49.1852C54.6029 48.5433 54.5154 47.3469 54.7634 47.0697C54.8217 47.0114 54.9385 46.9822 55.1135 46.9822C56.3537 46.9968 89.049 48.5141 90.5809 48.6017C91.077 48.6308 91.3542 48.7038 91.4563 48.8059C91.6752 49.0539 91.573 50.046 91.4563 51.1257C91.4271 51.4029 91.6314 51.6655 91.9086 51.6947C91.9378 51.6947 91.9524 51.7092 91.9816 51.7092Z" fill="#202D37"/>
<path d="M92.361 55.7805C93.2947 55.7805 93.4552 55.7367 93.5573 55.7076C94.8704 55.3428 94.8996 53.7088 94.9288 52.5124V52.3228C94.9725 50.8492 93.4698 50.7617 91.3981 50.645C91.0333 50.6158 90.6394 50.6012 90.2163 50.572C88.9908 50.4845 82.0169 50.1635 74.6492 49.8279C65.3556 49.4048 54.8218 48.9234 53.8881 48.8067C52.6188 48.6608 51.7872 48.6462 51.2328 49.0839C50.9264 49.3173 50.7513 49.682 50.693 50.1489L50.6784 50.324C50.5471 51.3453 50.3428 53.0523 51.9039 53.2565C52.5021 53.3295 62.6127 54.0881 72.4461 54.7446C85.6789 55.6054 90.5227 55.7805 92.361 55.7805ZM93.9075 52.3082V52.5124C93.8929 53.4316 93.8637 54.5696 93.2801 54.7446C92.93 54.8322 90.2017 54.8905 72.4024 53.7088C62.0729 53.0231 52.5313 52.3082 52.0206 52.2352C51.5975 52.1769 51.51 51.7538 51.6705 50.4407L51.6851 50.2656C51.7143 49.9884 51.8018 49.9155 51.8456 49.8863C52.1373 49.6675 53.0127 49.7404 53.7422 49.8279C54.7197 49.9447 64.8157 50.4115 74.5762 50.8492C81.944 51.1848 88.9032 51.5058 90.1142 51.5933C90.5373 51.6225 90.9458 51.6516 91.3105 51.6662C93.3677 51.783 93.9221 51.8851 93.9075 52.3082Z" fill="#202D37"/>
<path d="M170.387 154.144C170.532 154.144 170.678 154.085 170.78 153.969C172.954 151.445 174.253 148.556 174.515 145.609C174.793 142.589 173.961 139.7 172.079 137.263C173.144 135.775 177.258 129.327 179.33 115.846C182.306 96.5438 178.746 90.2995 178.586 90.0368C178.44 89.7888 178.134 89.7159 177.886 89.8618C177.638 90.0077 177.565 90.314 177.711 90.5621C177.74 90.6204 181.227 96.8502 178.323 115.685C176.018 130.596 171.087 136.899 171.028 136.957C170.883 137.147 170.883 137.409 171.028 137.599C174.72 142.107 174.311 148.279 169.993 153.298C169.803 153.516 169.832 153.837 170.051 154.012C170.153 154.1 170.27 154.144 170.387 154.144Z" fill="#202D37"/>
<path d="M152.995 88.8249C153.214 88.8249 153.418 88.679 153.491 88.4602C153.929 86.9575 153.331 85.9216 152.951 85.4401L156.934 77.3721C159.736 71.7113 160.669 69.8438 160.961 69.2311C165.309 69.4645 167.891 68.9976 169.102 67.7721C169.7 67.1739 169.978 66.3715 169.905 65.4232C169.832 64.4894 169.452 63.76 168.767 63.2493C167.497 62.3156 165.178 62.228 161.909 62.9867C161.632 63.0451 161.457 63.3223 161.53 63.5995C161.588 63.8767 161.866 64.0517 162.143 63.9788C165.075 63.2931 167.162 63.3223 168.168 64.0663C168.606 64.3873 168.84 64.8542 168.883 65.4961C168.927 66.1526 168.767 66.6633 168.373 67.0572C167.366 68.0785 164.857 68.4432 160.669 68.1952C160.465 68.1806 160.275 68.2973 160.173 68.487C160.115 68.6037 152.193 84.5939 151.843 85.2943C151.843 85.3088 151.828 85.3088 151.828 85.3088C151.726 85.5423 151.799 85.7319 151.857 85.8195C151.901 85.8924 151.974 85.9508 152.047 85.9946C152.266 86.2426 152.82 86.9867 152.47 88.1684C152.397 88.4456 152.543 88.7228 152.82 88.7958C152.908 88.8104 152.951 88.8249 152.995 88.8249Z" fill="#202D37"/>
<path d="M157.081 49.4777C154.294 43.3501 149.946 47.1434 151.653 50.6011C153.36 54.0589 159.415 55.5616 159.415 55.5616C158.014 59.9822 159.882 66.212 162.085 64.9865C163.836 64.0236 165.601 60.4637 164.988 58.0856C163.325 51.5348 159.138 45.9032 157.081 49.4777Z" fill="#202D37"/>
<path d="M161.516 65.6576C161.793 65.6576 162.055 65.5847 162.333 65.4388C164.288 64.3591 166.17 60.6096 165.484 57.9543C164.288 53.271 161.516 48.223 158.933 47.8728C158.437 47.7999 157.766 47.8874 157.153 48.5002C155.913 46.2388 154.542 45.7865 153.798 45.7136C152.849 45.626 151.93 46.0929 151.347 46.9537C150.603 48.0479 150.544 49.5215 151.172 50.8199C152.689 53.8692 157.212 55.4594 158.758 55.9117C157.839 59.5154 158.817 63.936 160.392 65.2199C160.757 65.5117 161.136 65.6576 161.516 65.6576ZM158.641 48.8795C158.714 48.8795 158.758 48.8941 158.802 48.8941C160.465 49.1275 163.15 52.9209 164.492 58.2169C165.032 60.3324 163.398 63.6734 161.822 64.5488C161.632 64.6509 161.384 64.7239 161.034 64.4467C159.809 63.44 158.802 59.136 159.882 55.7221C159.925 55.5908 159.911 55.4449 159.838 55.3136C159.765 55.1968 159.648 55.0947 159.517 55.0655C159.458 55.0509 153.666 53.5628 152.091 50.3677C151.522 49.2151 151.77 48.15 152.193 47.5227C152.572 46.9683 153.127 46.6765 153.71 46.7348C154.731 46.8224 155.782 47.902 156.599 49.682C156.672 49.857 156.847 49.9737 157.037 49.9737C157.226 49.9883 157.401 49.8862 157.503 49.7257C157.956 48.9817 158.393 48.8795 158.641 48.8795Z" fill="#202D37"/>
<path d="M152.193 65.2201C153.243 65.2201 154.775 64.9575 156.22 64.0675C156.453 63.9216 156.541 63.6007 156.38 63.3672C156.234 63.1338 155.913 63.0463 155.68 63.2067C153.842 64.3447 151.887 64.2864 151.405 64.1259C151.142 64.0384 150.851 64.1843 150.763 64.4615C150.676 64.7241 150.822 65.0159 151.099 65.1034C151.332 65.1618 151.711 65.2201 152.193 65.2201Z" fill="#202D37"/>
<path d="M163.398 66.7807C163.5 66.7807 163.602 66.7515 163.689 66.6786C163.996 66.5327 165.79 66.0512 166.958 66.3284C167.235 66.4014 167.512 66.2263 167.57 65.9491C167.643 65.6719 167.468 65.3947 167.191 65.3363C165.703 64.9716 163.369 65.5552 163.033 65.9053C162.829 66.1096 162.829 66.4306 163.033 66.6348C163.135 66.7369 163.266 66.7807 163.398 66.7807Z" fill="#202D37"/>
<path d="M134.496 78.5409C134.685 78.5409 134.86 78.4388 134.948 78.2637C135.677 76.8631 144.096 58.8595 144.446 58.1008C144.533 57.9112 144.504 57.6923 144.358 57.5318C141.484 54.4388 138.435 50.9373 137.705 49.8139C139.047 49.5805 144.198 49.8869 151.565 51.1124C151.843 51.1562 152.105 50.9665 152.149 50.6893C152.193 50.4121 152.003 50.1495 151.726 50.1057C148.239 49.5221 144.796 49.099 142.024 48.8802C137.457 48.5154 136.976 48.9385 136.772 49.1136C136.611 49.2449 136.523 49.42 136.523 49.6243C136.523 49.916 136.523 50.31 140.113 54.3951C141.455 55.927 142.826 57.4151 143.351 57.9987C142.199 60.4498 134.685 76.5421 134.014 77.8114C133.883 78.0595 133.985 78.3658 134.233 78.4971C134.335 78.5117 134.408 78.5409 134.496 78.5409Z" fill="#202D37"/>
<path d="M129.491 85.8633C129.637 85.8633 129.783 85.805 129.871 85.6883C131.213 84.1418 132.103 82.3035 132.803 80.8445C133.299 79.8086 133.97 78.408 134.306 78.5102C134.568 78.5977 135.167 78.8165 135.998 79.1229C140.01 80.5965 149.333 84.0542 153.141 84.3314C153.418 84.346 153.666 84.1418 153.681 83.8646C153.695 83.5874 153.491 83.3393 153.214 83.3247C149.567 83.0621 140.331 79.6482 136.378 78.1892C135.531 77.8828 134.933 77.6494 134.641 77.5618C133.46 77.1679 132.759 78.5977 131.884 80.4214C131.198 81.8366 130.352 83.6019 129.097 85.0463C128.908 85.2652 128.937 85.5861 129.141 85.7612C129.258 85.8196 129.375 85.8633 129.491 85.8633Z" fill="#202D37"/>
<path d="M135.415 76.6297C135.649 76.6297 135.867 76.4692 135.911 76.2358C136.363 74.2078 135.342 71.6254 133.446 69.9476C132.001 68.6783 130.309 68.1677 128.689 68.5033C128.587 67.4966 128.266 65.6437 127.114 65.0309C127.07 64.1264 126.88 62.0255 126.253 61.3252C126.063 61.1209 125.742 61.0917 125.538 61.2814C125.334 61.4711 125.305 61.792 125.494 61.9963C125.815 62.3464 126.063 64.0388 126.107 65.3811C126.122 65.5999 126.267 65.7896 126.486 65.8479C127.376 66.096 127.697 68.1823 127.712 69.1452C127.712 69.3057 127.799 69.4662 127.931 69.5537C128.062 69.6413 128.237 69.6704 128.398 69.6121C130.367 68.9118 131.987 69.9914 132.774 70.6771C134.379 72.0923 135.284 74.3245 134.919 75.9732C134.861 76.2504 135.036 76.5276 135.313 76.5859C135.342 76.6297 135.371 76.6297 135.415 76.6297Z" fill="#202D37"/>
<path d="M120.592 100.104C120.65 100.104 120.709 100.089 120.752 100.075C121.015 99.9871 121.161 99.6953 121.073 99.4181C121.015 99.2722 115.923 84.5075 113.662 71.7853C111.342 58.713 115.252 55.6492 119.396 54.3799C123.539 53.1106 135.823 59.8656 140.448 62.4188C140.857 62.6376 141.222 62.8419 141.543 63.0169C141.791 63.1482 142.097 63.0607 142.228 62.8127C142.36 62.5647 142.272 62.2583 142.024 62.127C141.703 61.9519 141.338 61.7622 140.944 61.5288C132.395 56.8163 123.116 52.1768 119.089 53.4024C116.127 54.3069 114.231 55.8826 113.107 58.3628C111.721 61.4267 111.575 65.8765 112.655 71.9458C114.931 84.7409 120.052 99.5931 120.096 99.739C120.183 99.9725 120.388 100.104 120.592 100.104Z" fill="#202D37"/>
<path d="M142.156 89.716C143.877 89.716 145.54 89.5117 146.839 89.147C147.116 89.074 147.276 88.7968 147.189 88.5196C147.116 88.2424 146.839 88.0819 146.562 88.1695C142.827 89.2053 136.787 88.7385 134.861 86.6084C134.671 86.4041 134.35 86.3749 134.146 86.5646C133.942 86.7543 133.912 87.0752 134.102 87.2795C135.663 89.0157 138.99 89.716 142.156 89.716Z" fill="#202D37"/>
<path d="M102.618 129.253C102.793 129.253 102.953 129.165 103.055 129.005C103.216 128.742 119.221 102.583 125.669 92.4725C125.815 92.2391 125.757 91.9181 125.509 91.7722C125.275 91.6263 124.954 91.6847 124.808 91.9327C118.345 102.058 102.34 128.217 102.18 128.48C102.034 128.713 102.107 129.034 102.355 129.18C102.443 129.224 102.53 129.253 102.618 129.253Z" fill="#202D37"/>
<path d="M147.072 133.105C147.291 133.105 147.48 132.973 147.553 132.755C147.626 132.536 154.921 111.395 157.474 104.611C157.576 104.349 157.445 104.057 157.182 103.955C156.92 103.852 156.628 103.984 156.526 104.246C153.973 111.045 146.663 132.2 146.59 132.419C146.503 132.682 146.634 132.973 146.911 133.075C146.955 133.09 147.013 133.105 147.072 133.105Z" fill="#202D37"/>
<path d="M154.381 81.8818C154.483 81.8818 154.571 81.8527 154.658 81.7943C158.787 79.066 163.033 77.3591 164.944 77.1402C166.184 76.9943 167.556 75.973 168.869 74.9955C169.89 74.2369 170.94 73.449 171.612 73.3615C173.114 73.1572 173.683 73.3323 173.698 73.3323C173.946 73.4344 174.223 73.3031 174.34 73.0551C175.492 70.4144 179.038 70.7062 179.081 70.7208C179.359 70.7499 179.607 70.5457 179.636 70.2539C179.665 69.9767 179.461 69.7287 179.169 69.6995C178.994 69.6849 175.171 69.3785 173.581 72.2819C173.187 72.2381 172.516 72.2089 171.48 72.3548C170.547 72.4861 169.438 73.3031 168.271 74.1931C167.118 75.0539 165.79 76.046 164.842 76.1481C162.77 76.3816 158.408 78.1177 154.104 80.9627C153.871 81.1232 153.798 81.4296 153.958 81.6776C154.06 81.8089 154.221 81.8818 154.381 81.8818Z" fill="#202D37"/>
<path d="M155.797 108.567C155.899 108.567 156.001 108.537 156.103 108.464C157.227 107.633 158.496 106.728 159.838 105.78C169.249 99.0832 183.459 88.9726 187.471 77.2863C189.732 70.7064 186.464 65.2061 182.087 63.1636C178.936 61.69 175.653 62.7405 172.473 63.7471C171.379 64.0973 170.343 64.4183 169.321 64.6517C169.044 64.7101 168.869 64.9873 168.928 65.2645C168.986 65.5417 169.263 65.7167 169.54 65.6584C170.605 65.425 171.714 65.0748 172.779 64.7246C175.77 63.7763 178.863 62.7988 181.65 64.0973C185.618 65.9502 188.565 70.9544 186.508 76.9654C182.598 88.3453 168.548 98.3392 159.255 104.963C157.912 105.926 156.643 106.83 155.505 107.662C155.272 107.822 155.228 108.143 155.388 108.377C155.476 108.494 155.636 108.567 155.797 108.567Z" fill="#202D37"/>
<path d="M50.2258 55.8965C50.2258 55.8965 55.7844 59.6023 61.664 59.7336C62.5394 78.6125 52.4288 80.8156 52.4288 80.8156C52.4288 80.8156 42.1431 81.049 39.6921 62.3597C45.4404 60.8424 50.2258 55.8965 50.2258 55.8965Z" fill="#FFFEF2"/>
<path d="M52.4143 81.3114C52.4289 81.3114 52.4435 81.3114 52.4435 81.3114C52.4727 81.3114 52.5018 81.3114 52.5456 81.2968C52.6623 81.2676 55.2739 80.6695 57.7687 77.664C60.0301 74.9357 62.6271 69.6105 62.1748 59.6896C62.1602 59.4269 61.9413 59.2081 61.6787 59.2081C56.0179 59.0914 50.5614 55.5023 50.5177 55.4586C50.3134 55.3272 50.0362 55.3564 49.8611 55.5315C49.8174 55.5753 45.0903 60.3899 39.5754 61.8488C39.3274 61.9072 39.1669 62.1552 39.1961 62.4032C40.232 70.2962 42.7414 75.8695 46.666 78.9771C49.511 81.2384 52.0787 81.3114 52.4143 81.3114ZM61.1827 60.2148C61.5328 69.5084 59.111 74.4689 56.9955 77.022C54.8945 79.546 52.7353 80.2026 52.3851 80.2901C52.035 80.2755 49.7444 80.1442 47.2496 78.1309C44.7693 76.1321 41.5596 71.8427 40.2757 62.7096C45.1341 61.2798 49.19 57.6032 50.2988 56.5236C51.5973 57.3406 56.1784 59.9522 61.1827 60.2148Z" fill="#202D37"/>
<path d="M57.2288 67.9624C57.2871 68.5022 53.7273 72.2518 52.8081 72.7332C51.9036 73.2293 43.9376 66.7952 43.8793 65.9344C43.8209 65.0737 45.2069 64.0378 45.63 64.3733C46.0531 64.7089 51.5388 69.7861 52.2391 69.5089C52.9394 69.2317 54.5735 66.2846 55.0987 66.1679C55.6093 66.0803 57.1121 66.9703 57.2288 67.9624Z" fill="#E89F6B"/>
<path d="M52.6774 72.9968C52.7795 72.9968 52.8525 72.9676 52.9108 72.9385C53.6841 72.5154 57.5211 68.6929 57.4482 67.9488C57.3898 67.4382 57.0105 66.8983 56.4123 66.4607C56.033 66.1835 55.4348 65.8917 55.0555 65.9646C54.7345 66.0376 54.326 66.592 53.6111 67.5841C53.1005 68.2844 52.4731 69.1743 52.1813 69.3056C51.7436 69.3056 49.8178 67.7883 46.4622 64.7974C46.1121 64.4765 45.8786 64.2722 45.7911 64.2139C45.5868 64.0534 45.2513 64.068 44.8865 64.2576C44.2738 64.5786 43.6464 65.3081 43.6902 65.95C43.7485 66.8692 49.3072 71.3044 51.5394 72.5445C52.123 72.8947 52.4731 72.9968 52.6774 72.9968ZM57.0105 67.978C56.923 68.5324 53.5965 72.0631 52.7066 72.5445C52.7066 72.5445 52.4877 72.6029 51.481 72.0193C48.709 70.3853 44.2154 66.4898 44.0987 65.9208C44.0695 65.4686 44.5801 64.8996 45.0616 64.637C45.3096 64.5056 45.4555 64.5056 45.4993 64.5494C45.5722 64.6078 45.8057 64.8266 46.1412 65.1184C50.7078 69.1743 51.8895 69.8892 52.3126 69.7141C52.7066 69.5537 53.2172 68.8679 53.9467 67.8321C54.3406 67.2777 54.9388 66.4461 55.1284 66.3877C55.2597 66.3585 55.6683 66.4752 56.1497 66.8108C56.6458 67.161 56.9521 67.5986 57.0105 67.978Z" fill="#E89F6B"/>
<path d="M47.5564 3.30111V11.2816C47.5564 11.3254 47.571 11.3692 47.6002 11.3984C47.6294 11.4275 47.6731 11.4421 47.7169 11.4421H49.7303C49.774 11.4421 49.8178 11.4275 49.847 11.3984C49.8762 11.3692 49.8908 11.3254 49.8908 11.2816V5.24153H50.4889C50.5327 5.24153 50.5765 5.22694 50.6056 5.19776C50.6348 5.16859 50.6494 5.12482 50.6494 5.08105V3.30111C50.6494 3.25734 50.6348 3.21358 50.6056 3.1844C50.5765 3.15522 50.5327 3.14062 50.4889 3.14062H47.7169C47.6731 3.14062 47.6294 3.15522 47.6002 3.1844C47.571 3.21358 47.5564 3.25734 47.5564 3.30111Z" fill="#202D37"/>
<path d="M47.7168 11.6757H49.7302C49.8323 11.6757 49.9198 11.6465 49.9928 11.5735C50.0657 11.5006 50.1095 11.3985 50.1095 11.2963V5.47506H50.4888C50.6056 5.47506 50.6931 5.43129 50.766 5.35835C50.839 5.2854 50.8682 5.19786 50.8682 5.09573V3.3158C50.8682 3.21367 50.8244 3.11154 50.7514 3.03859C50.6785 2.96565 50.591 2.92188 50.4743 2.92188H47.7022C47.6001 2.92188 47.5125 2.96565 47.4396 3.03859C47.3667 3.11154 47.3229 3.19908 47.3229 3.3158V11.2963C47.3229 11.3985 47.3667 11.5006 47.4396 11.5735C47.5271 11.6319 47.6147 11.6757 47.7168 11.6757ZM49.6718 11.238H47.7752V3.35956H50.4451V5.03737H49.9053C49.7885 5.03737 49.6864 5.1395 49.6864 5.25622V11.238H49.6718ZM47.7752 3.30121H47.5563H47.7752Z" fill="#202D37"/>
<path d="M15.0217 111.616C14.832 112.462 14.8758 113.192 15.1238 113.79C15.3718 114.403 15.8679 114.899 16.6265 115.307L16.1451 117.525C16.1305 117.583 16.145 117.642 16.1742 117.7C16.2034 117.759 16.2618 117.788 16.3201 117.802L19.238 118.444C19.2964 118.459 19.3548 118.444 19.4131 118.415C19.4715 118.386 19.5007 118.328 19.5153 118.269L19.9384 116.3C20.4928 116.402 20.9888 116.46 21.4557 116.504C21.514 116.504 21.5724 116.489 21.6162 116.445C21.6599 116.402 21.7037 116.358 21.7183 116.285L22.0101 113.878C22.0247 113.805 21.9955 113.746 21.9517 113.688C21.908 113.63 21.835 113.615 21.7621 113.615C21.5724 113.615 21.3827 113.615 21.1931 113.6C21.0034 113.586 20.7408 113.571 20.4344 113.542C20.128 113.513 19.8362 113.469 19.5882 113.411C19.311 113.352 19.0776 113.265 18.8879 113.148C18.7128 113.031 18.5961 112.9 18.5378 112.769C18.4794 112.638 18.4502 112.521 18.4356 112.419C18.421 112.317 18.421 112.229 18.4356 112.156C18.4502 112.069 18.494 111.996 18.5378 111.908C18.5961 111.821 18.6836 111.718 18.8004 111.587C18.9317 111.456 19.1213 111.354 19.3694 111.266C19.632 111.179 19.9384 111.135 20.2739 111.12C20.6678 111.12 21.0618 111.047 21.4557 110.916C21.8496 110.785 22.2289 110.595 22.5937 110.347C22.9584 110.099 23.2794 109.763 23.5712 109.326C23.8484 108.888 24.0526 108.407 24.1839 107.852C24.359 107.079 24.3007 106.379 24.0235 105.766C23.7463 105.153 23.2648 104.642 22.5791 104.219L23.0751 101.943C23.0897 101.885 23.0751 101.812 23.046 101.754C23.0168 101.695 22.9584 101.666 22.9001 101.652L19.9821 101.01C19.9238 100.995 19.8508 101.01 19.7925 101.039C19.7341 101.083 19.6903 101.126 19.6903 101.199L19.2672 103.169C18.742 103.081 18.2168 103.008 17.6916 102.95C17.6332 102.95 17.5748 102.965 17.5165 103.008C17.4581 103.052 17.4289 103.096 17.4289 103.169L17.1372 105.576C17.1372 105.649 17.1517 105.707 17.1955 105.766C17.2393 105.824 17.2976 105.853 17.3706 105.853C18.2168 105.853 18.9754 105.926 19.6466 106.058C19.9238 106.116 20.1572 106.189 20.3323 106.32C20.5073 106.437 20.6387 106.568 20.697 106.714C20.7554 106.86 20.7846 106.977 20.7992 107.064C20.8137 107.166 20.8137 107.254 20.7992 107.327C20.7846 107.4 20.7554 107.487 20.697 107.575C20.6387 107.662 20.5511 107.765 20.4198 107.896C20.2885 108.013 20.0989 108.129 19.8362 108.217C19.5736 108.304 19.2672 108.348 18.9317 108.363C18.5377 108.377 18.1438 108.45 17.7499 108.582C17.356 108.713 16.9767 108.903 16.6119 109.151C16.2472 109.399 15.9262 109.749 15.649 110.172C15.3426 110.58 15.1384 111.062 15.0217 111.616Z" fill="#202D37"/>
<path d="M19.2962 118.662C19.3838 118.662 19.4567 118.633 19.5443 118.589C19.6464 118.516 19.7193 118.429 19.7485 118.297L20.1279 116.532C20.6093 116.605 21.047 116.663 21.4555 116.707C21.5722 116.722 21.6743 116.678 21.7765 116.605C21.864 116.532 21.9224 116.43 21.9516 116.328V116.313L22.2434 113.906C22.2579 113.76 22.2142 113.643 22.1266 113.541C22.0391 113.439 21.9224 113.395 21.7765 113.395C21.6014 113.395 21.4117 113.395 21.2075 113.381C21.0178 113.366 20.7698 113.351 20.4634 113.322C20.157 113.293 19.8798 113.249 19.6318 113.191C19.3692 113.147 19.1649 113.06 19.0044 112.958C18.8585 112.87 18.771 112.768 18.7272 112.68C18.6835 112.564 18.6543 112.462 18.6397 112.389C18.6251 112.316 18.6251 112.257 18.6397 112.199C18.6543 112.141 18.6835 112.082 18.7272 112.009C18.7564 111.965 18.8294 111.863 18.9607 111.732C19.0628 111.63 19.2233 111.542 19.4567 111.469C19.6902 111.396 19.982 111.353 20.3029 111.338C20.726 111.338 21.1345 111.251 21.5576 111.119C21.9661 110.973 22.3747 110.784 22.754 110.521C23.1479 110.259 23.4981 109.894 23.7898 109.441C24.0816 108.989 24.3005 108.464 24.4318 107.895C24.6069 107.078 24.5485 106.334 24.2567 105.677C23.9795 105.065 23.5126 104.539 22.8561 104.116L23.323 102.001C23.3521 101.884 23.323 101.767 23.2646 101.665C23.2063 101.548 23.1041 101.476 22.9728 101.446L20.0549 100.804C19.9382 100.775 19.8069 100.804 19.7048 100.863C19.6026 100.936 19.5297 101.038 19.5005 101.155L19.1212 102.92C18.6543 102.847 18.202 102.789 17.7352 102.73C17.6184 102.716 17.5163 102.759 17.4142 102.818C17.312 102.891 17.2391 103.007 17.2245 103.139L16.9473 105.546C16.9327 105.677 16.9765 105.794 17.064 105.896C17.1516 105.998 17.2829 106.057 17.4142 106.057C18.2458 106.057 18.9899 106.13 19.6318 106.261C19.8798 106.305 20.0841 106.378 20.2446 106.48C20.3905 106.567 20.478 106.669 20.5218 106.772C20.5655 106.888 20.6093 106.99 20.6093 107.063C20.6239 107.136 20.6239 107.195 20.6093 107.253C20.5947 107.282 20.5801 107.341 20.5364 107.428C20.5072 107.472 20.4488 107.559 20.3029 107.705C20.2008 107.807 20.0257 107.895 19.8069 107.968C19.5734 108.041 19.2817 108.085 18.9607 108.099C18.5522 108.114 18.1291 108.187 17.7206 108.333C17.3121 108.464 16.9035 108.668 16.5242 108.931C16.1303 109.193 15.7947 109.558 15.4883 110.01C15.1966 110.463 14.9777 110.973 14.861 111.542C14.6713 112.432 14.7005 113.206 14.9777 113.848C15.2257 114.46 15.7218 114.986 16.4221 115.394L15.9698 117.451C15.9406 117.568 15.9698 117.685 16.0282 117.787C16.1011 117.889 16.1886 117.962 16.3199 117.991L19.2379 118.633C19.2233 118.662 19.2525 118.662 19.2962 118.662ZM19.9382 116.08C19.8361 116.08 19.7485 116.153 19.7193 116.255L19.2962 118.224L19.2816 118.239L16.3491 117.597L16.3345 117.583L16.816 115.365C16.8306 115.263 16.7868 115.175 16.7139 115.131C16.0136 114.752 15.5467 114.271 15.3133 113.716C15.0798 113.147 15.0506 112.462 15.2257 111.674C15.3424 111.148 15.5321 110.682 15.7947 110.288C16.0573 109.879 16.3637 109.558 16.6993 109.325C17.0494 109.091 17.4142 108.902 17.7935 108.785C18.1728 108.668 18.5376 108.595 18.9169 108.581C19.2816 108.566 19.6026 108.522 19.8944 108.42C20.1862 108.318 20.4051 108.201 20.5655 108.055C20.7114 107.91 20.8136 107.793 20.8719 107.691C20.9449 107.574 20.9741 107.486 21.0032 107.384C21.0324 107.282 21.0324 107.165 21.0178 107.049C21.0032 106.932 20.9595 106.801 20.9011 106.64C20.8281 106.465 20.6822 106.305 20.4634 106.159C20.2592 106.028 19.9965 105.925 19.7048 105.867C19.0336 105.736 18.2604 105.663 17.3996 105.663C17.385 105.648 17.385 105.634 17.385 105.634L17.6622 103.241C17.6768 103.226 17.6768 103.226 17.6914 103.226C18.202 103.285 18.7272 103.358 19.2379 103.445C19.3546 103.46 19.4567 103.387 19.4859 103.27L19.909 101.3C19.909 101.3 19.909 101.286 19.9236 101.286C19.9382 101.271 19.9382 101.271 19.9382 101.286L22.8561 101.928C22.8707 101.942 22.8707 101.942 22.8707 101.957L22.3746 104.233C22.3601 104.321 22.3892 104.423 22.4768 104.466C23.1187 104.86 23.5856 105.356 23.8336 105.925C24.0962 106.494 24.14 107.151 23.9795 107.866C23.8628 108.391 23.6731 108.858 23.4105 109.266C23.1479 109.675 22.8415 109.996 22.4914 110.229C22.1412 110.463 21.7765 110.652 21.4117 110.784C21.047 110.915 20.6677 110.973 20.2883 110.988C19.9236 111.003 19.588 111.046 19.3108 111.148C19.019 111.251 18.8002 111.367 18.6543 111.513C18.523 111.659 18.4209 111.776 18.3479 111.878C18.2895 111.995 18.2312 112.097 18.2166 112.199C18.202 112.301 18.1874 112.403 18.202 112.534C18.2166 112.651 18.2604 112.783 18.3187 112.943C18.3917 113.118 18.5376 113.279 18.7564 113.424C18.9607 113.556 19.2233 113.658 19.5297 113.716C19.7923 113.775 20.0841 113.818 20.405 113.848C20.726 113.877 20.974 113.891 21.1783 113.906C21.3826 113.92 21.5722 113.92 21.7619 113.92C21.7765 113.92 21.7765 113.92 21.7765 113.92C21.7765 113.92 21.7765 113.921 21.7765 113.935L21.4993 116.328C21.4993 116.342 21.4847 116.342 21.4847 116.357C21.0324 116.328 20.5218 116.255 19.982 116.167C19.9674 116.08 19.9528 116.08 19.9382 116.08Z" fill="#202D37"/>
</svg>
