<svg width="263" height="149" viewBox="0 0 263 149" fill="none" xmlns="http://www.w3.org/2000/svg">
<path d="M153.495 36.1843C159.369 30.3105 159.369 20.7872 153.495 14.9133C147.622 9.03952 138.098 9.03953 132.224 14.9133C126.351 20.7872 126.351 30.3105 132.224 36.1843C138.098 42.0581 147.622 42.0581 153.495 36.1843Z" fill="#FBD931"/>
<path d="M254.498 143.481C252.988 150.857 250.297 157.922 246.639 164.523C222.17 208.717 155.115 232.605 121.123 196.347C116.245 191.14 112.044 185.739 108.482 180.203C96.8288 162.045 92.1636 142.494 93.6154 123.969C94.7962 108.908 100.023 94.5448 108.811 82.1752C112.296 77.2583 116.361 72.6512 120.968 68.4505C184.268 10.4933 266.055 86.7243 254.498 143.481Z" fill="#EF7136"/>
<path d="M246.638 164.522C222.17 208.716 155.114 232.603 121.122 196.346C116.244 191.139 112.043 185.738 108.482 180.202C108.404 179.04 108.346 177.84 108.288 176.601C107.669 164.967 107.63 158.889 120.212 158.018C123.29 157.805 128.11 157.398 133.937 156.895C134.982 155.191 138.467 149.384 141.254 143.383C138.486 143.035 109.256 139.163 99.4995 130.646C97.525 128.923 95.5312 126.6 93.6148 123.948C85.5619 112.875 78.5157 96.1309 77.5285 93.595C76.4831 90.9236 76.3864 88.8136 76.9864 84.8647C76.5412 85.3873 72.5729 80.1801 73.1536 78.3411C74.1215 75.3406 83.5681 69.0494 88.8334 68.4299C89.7626 68.3138 92.3952 72.9016 91.7951 73.0177C95.086 73.4436 101.648 75.0309 103.139 76.7537C103.797 77.5087 106.139 79.5993 108.791 82.1739C113.089 86.3165 118.18 91.7173 118.257 94.7371C118.393 99.6346 119.128 99.5766 120.638 99.7121C122.168 99.8476 123.426 100.583 123.29 102.364C123.155 104.164 123.426 105.558 126.484 105.074C129.543 104.61 131.595 105.132 132.195 107.668C132.795 110.185 141.157 110.262 144.332 110.32C147.507 110.378 163.651 111.636 165.548 112.779C166.69 101.9 171.046 84.6711 171.046 84.6711C171.046 84.6711 157.766 80.2575 157.96 78.1281C158.076 76.928 168.704 72.8048 175.634 70.2495C175.73 70.2108 179.912 70.7141 182.157 69.7849C182.157 69.7849 178.46 79.8897 190.326 83.9936C190.326 83.9936 190.481 85.9681 191.333 86.0842C191.914 86.1616 192.785 85.697 193.172 83.8581C193.346 83.0257 193.424 81.9029 193.346 80.4317C193.346 80.4317 193.423 80.4317 193.578 80.4317H193.598C195.553 80.4511 197.392 80.6447 198.921 80.9737C201.05 81.4383 202.541 82.2126 202.851 83.2386C203.335 84.8066 202.154 86.6456 197.411 87.3618C195.63 92.7626 195.901 97.4859 197.605 97.7376C199.482 98.0279 200.199 97.4085 201.109 96.7503C202.018 96.0922 202.735 99.4411 198.921 101.977C195.94 103.951 192.204 104.706 189.281 102.771C188.545 108.017 187.752 113.921 187.152 119.302C188.507 119.322 208.406 132.001 213.788 134.846C217.272 136.705 224.241 140.964 229.526 147.061C241.024 146.422 244.373 147.294 245.612 156.256C245.902 157.96 246.251 160.863 246.638 164.522Z" fill="#FFFEF2"/>
<path d="M174.434 79.7739C174.027 79.5997 173.853 79.1158 174.027 78.7286L174.86 76.8703C175.034 76.4638 175.518 76.2895 175.905 76.4638C176.311 76.638 176.486 77.1219 176.311 77.5091L175.479 79.3674C175.324 79.7739 174.84 79.9675 174.434 79.7739Z" fill="#202D37"/>
<path d="M179.313 81.981C178.906 81.8068 178.732 81.3228 178.906 80.9356L179.739 79.0773C179.913 78.6708 180.397 78.4966 180.784 78.6708C181.19 78.845 181.365 79.329 181.19 79.7161L180.358 81.5745C180.184 81.981 179.719 82.1552 179.313 81.981Z" fill="#202D37"/>
<path d="M145.551 29.6388C145.242 30.4325 144.796 31.0132 144.254 31.381C143.712 31.7488 143.016 31.8843 142.183 31.8069L141.351 33.8975C141.331 33.9556 141.293 33.9943 141.235 34.033C141.177 34.0524 141.118 34.0524 141.06 34.033L138.312 32.9296C138.253 32.9103 138.215 32.8716 138.176 32.8135C138.157 32.7554 138.157 32.6973 138.176 32.6393L138.912 30.7809C138.408 30.5486 137.944 30.3357 137.557 30.1034C137.499 30.084 137.479 30.026 137.46 29.9679C137.44 29.9098 137.44 29.8517 137.46 29.7937L138.563 27.6643C138.602 27.6062 138.641 27.5675 138.718 27.5482C138.796 27.5288 138.854 27.5482 138.912 27.5869C139.067 27.6837 139.221 27.7998 139.396 27.8966C139.57 27.9934 139.783 28.1289 140.054 28.2644C140.325 28.4193 140.576 28.5354 140.828 28.6322C141.099 28.7483 141.331 28.8064 141.544 28.8064C141.757 28.8064 141.931 28.7677 142.048 28.6903C142.164 28.6128 142.261 28.5354 142.319 28.458C142.377 28.3806 142.435 28.3031 142.454 28.245C142.493 28.1676 142.493 28.0708 142.512 27.974C142.512 27.8773 142.512 27.7417 142.473 27.5675C142.435 27.3933 142.338 27.1997 142.183 26.9868C142.009 26.7739 141.796 26.5609 141.506 26.3673C141.177 26.135 140.906 25.864 140.654 25.535C140.402 25.2059 140.209 24.8381 140.034 24.4316C139.88 24.025 139.802 23.5605 139.802 23.0572C139.802 22.5539 139.918 22.0312 140.112 21.5085C140.402 20.7729 140.828 20.2309 141.409 19.8825C141.97 19.534 142.667 19.3792 143.461 19.4179L144.312 17.2692C144.332 17.2111 144.371 17.1724 144.448 17.1337C144.506 17.1143 144.564 17.095 144.622 17.1337L147.371 18.2371C147.429 18.2564 147.468 18.3145 147.507 18.3726C147.526 18.4307 147.526 18.5081 147.507 18.5662L146.771 20.4245C147.255 20.6374 147.719 20.8697 148.184 21.1214C148.242 21.1407 148.261 21.1988 148.3 21.2569C148.32 21.315 148.32 21.373 148.281 21.4311L147.177 23.5605C147.139 23.6185 147.1 23.6573 147.023 23.6766C146.945 23.696 146.887 23.696 146.829 23.6572C146.132 23.1927 145.474 22.8249 144.855 22.5732C144.603 22.4571 144.371 22.399 144.158 22.399C143.945 22.399 143.77 22.4377 143.654 22.5151C143.538 22.5926 143.441 22.67 143.364 22.7474C143.306 22.8249 143.248 22.9023 143.228 22.9604C143.209 23.0378 143.19 23.1152 143.17 23.212C143.17 23.3088 143.17 23.4443 143.209 23.6185C143.248 23.7928 143.345 23.9863 143.519 24.1993C143.693 24.4122 143.906 24.6251 144.196 24.8187C144.506 25.051 144.796 25.322 145.048 25.6511C145.3 25.9802 145.513 26.348 145.668 26.7545C145.822 27.161 145.9 27.6256 145.9 28.1289C145.861 28.6128 145.745 29.1161 145.551 29.6388Z" fill="#202D37"/>
<path d="M141.138 34.3234C141.08 34.3234 141.003 34.304 140.944 34.2847L138.196 33.1813C138.06 33.1232 137.963 33.0264 137.905 32.9103C137.847 32.7748 137.847 32.6393 137.905 32.5038L138.544 30.8971C138.138 30.7035 137.75 30.5099 137.421 30.3357C137.305 30.2776 137.228 30.1615 137.189 30.0453C137.15 29.9292 137.15 29.7937 137.208 29.6582C137.208 29.6582 137.208 29.6388 137.228 29.6388L138.331 27.5094C138.409 27.3739 138.525 27.2772 138.68 27.2384C138.835 27.1997 138.97 27.2384 139.106 27.3159C139.26 27.4127 139.415 27.5288 139.57 27.6256C139.725 27.7224 139.938 27.8385 140.209 27.9934C140.461 28.1289 140.712 28.245 140.944 28.3418C141.177 28.4386 141.39 28.4967 141.564 28.4967C141.758 28.4967 141.854 28.458 141.893 28.4193C141.99 28.3612 142.067 28.2838 142.106 28.245C142.164 28.187 142.183 28.1289 142.203 28.1095C142.222 28.0708 142.241 28.0128 142.241 27.9353C142.241 27.8772 142.241 27.7805 142.203 27.5869C142.183 27.5095 142.125 27.3546 141.951 27.1223C141.796 26.9287 141.603 26.7351 141.351 26.5609C141.003 26.3286 140.693 26.0189 140.422 25.6705C140.151 25.322 139.938 24.9349 139.764 24.4896C139.589 24.0444 139.493 23.5411 139.512 22.9991C139.512 22.4571 139.628 21.8957 139.86 21.3537C140.17 20.56 140.654 19.9793 141.274 19.5921C141.835 19.2437 142.512 19.0695 143.287 19.0695L144.061 17.1143C144.119 16.9788 144.197 16.882 144.332 16.824C144.468 16.7659 144.603 16.7465 144.739 16.8046L147.487 17.908C147.623 17.9661 147.72 18.0629 147.778 18.1984C147.836 18.3339 147.836 18.4694 147.778 18.6049L147.139 20.2116C147.545 20.4051 147.933 20.5987 148.32 20.7923C148.436 20.8504 148.513 20.9665 148.571 21.0827C148.63 21.2182 148.61 21.373 148.533 21.5085L147.429 23.6379C147.352 23.7734 147.236 23.8508 147.1 23.9089C146.945 23.9476 146.791 23.9283 146.655 23.8315C145.978 23.3862 145.339 23.0184 144.739 22.7668C144.506 22.67 144.313 22.6119 144.139 22.6119C143.984 22.6119 143.868 22.6313 143.79 22.6894C143.655 22.7668 143.597 22.8249 143.558 22.8636C143.519 22.9023 143.48 22.9604 143.461 22.9991C143.442 23.0184 143.442 23.0765 143.422 23.1733C143.422 23.2314 143.422 23.3282 143.461 23.5024C143.48 23.6379 143.577 23.7928 143.713 23.967C143.868 24.1606 144.061 24.3541 144.313 24.5283C144.642 24.78 144.952 25.0704 145.223 25.4188C145.494 25.7672 145.707 26.1544 145.881 26.5996C146.055 27.0449 146.132 27.5482 146.132 28.0902C146.132 28.6322 146.016 29.1742 145.784 29.7356C145.435 30.5873 144.971 31.2068 144.39 31.6133C143.848 31.9811 143.151 32.136 142.338 32.0972L141.583 33.9943C141.525 34.1298 141.428 34.2266 141.312 34.2847C141.274 34.304 141.196 34.3234 141.138 34.3234ZM138.447 32.6586L141.099 33.7233L141.912 31.6907C141.951 31.5746 142.087 31.4972 142.203 31.5165C142.977 31.5939 143.616 31.4584 144.1 31.1487C144.584 30.8196 144.99 30.2776 145.281 29.542C145.474 29.0581 145.571 28.5741 145.59 28.1095C145.59 27.645 145.532 27.2191 145.377 26.8319C145.223 26.4448 145.029 26.0963 144.797 25.806C144.564 25.4962 144.293 25.2446 144.003 25.0317C143.713 24.8187 143.461 24.5864 143.267 24.3541C143.074 24.1025 142.958 23.8702 142.919 23.6572C142.88 23.4637 142.861 23.2895 142.861 23.1733C142.861 23.0378 142.9 22.9217 142.938 22.8249C142.977 22.7087 143.054 22.6119 143.132 22.5151C143.209 22.4184 143.326 22.3409 143.48 22.2441C143.655 22.128 143.887 22.0699 144.158 22.0699C144.41 22.0699 144.681 22.128 144.971 22.2635C145.59 22.5151 146.249 22.8829 146.945 23.3475L147.991 21.315C147.565 21.0827 147.1 20.8697 146.636 20.6568C146.5 20.5987 146.423 20.4245 146.481 20.289L147.197 18.4694L144.526 17.4047L143.693 19.5147C143.655 19.6308 143.538 19.7083 143.403 19.6889C142.667 19.6502 142.029 19.8051 141.525 20.1148C141.003 20.4245 140.615 20.9278 140.344 21.586C140.151 22.0699 140.054 22.5539 140.054 23.0184C140.054 23.483 140.112 23.9089 140.267 24.2961C140.422 24.6832 140.615 25.0317 140.848 25.3414C141.08 25.6511 141.351 25.9028 141.641 26.1157C141.951 26.3286 142.203 26.5609 142.377 26.7932C142.571 27.0449 142.687 27.2772 142.725 27.4901C142.764 27.6837 142.783 27.8385 142.764 27.974C142.764 28.1095 142.725 28.2257 142.687 28.3418C142.648 28.4386 142.59 28.5354 142.493 28.6322C142.416 28.729 142.3 28.8258 142.164 28.9226C141.99 29.0387 141.758 29.0968 141.506 29.0968C141.254 29.0968 140.983 29.0194 140.674 28.9032C140.422 28.8064 140.151 28.6709 139.88 28.5161C139.609 28.3612 139.377 28.245 139.202 28.1289C139.047 28.0321 138.893 27.9353 138.757 27.8385L137.712 29.8711C138.08 30.084 138.525 30.297 139.009 30.5099C139.144 30.568 139.222 30.7422 139.164 30.8777L138.447 32.6586Z" fill="#202D37"/>
<path d="M262.008 71.1406C262.241 71.5084 262.337 71.8568 262.318 72.1859C262.299 72.515 262.144 72.8441 261.873 73.1538L262.473 74.1217C262.492 74.1411 262.492 74.1798 262.492 74.2185C262.492 74.2572 262.473 74.2766 262.434 74.2959L261.157 75.0896C261.137 75.109 261.099 75.109 261.06 75.109C261.021 75.109 261.002 75.0896 260.982 75.0509L260.46 74.1991C260.208 74.3346 259.995 74.4508 259.782 74.5476C259.763 74.5669 259.724 74.5669 259.705 74.5476C259.666 74.5282 259.647 74.5089 259.627 74.4895L259.105 73.4055C259.085 73.3668 259.085 73.3474 259.105 73.3087C259.124 73.27 259.143 73.2506 259.182 73.2506C259.279 73.2119 259.356 73.1925 259.453 73.1538C259.55 73.1151 259.666 73.057 259.802 72.999C259.937 72.9409 260.073 72.8635 260.189 72.8054C260.305 72.728 260.402 72.6505 260.479 72.5731C260.537 72.4957 260.576 72.3989 260.576 72.3408C260.576 72.2634 260.576 72.2053 260.557 72.1666C260.537 72.1085 260.537 72.0698 260.518 72.0504C260.499 72.0117 260.46 71.973 260.421 71.9536C260.382 71.9149 260.324 71.8762 260.247 71.8375C260.169 71.7988 260.053 71.7794 259.918 71.7794C259.782 71.7794 259.627 71.8181 259.473 71.8569C259.279 71.9149 259.085 71.9536 258.872 71.9536C258.66 71.9536 258.447 71.9343 258.234 71.8762C258.021 71.8181 257.808 71.7213 257.614 71.5471C257.401 71.3923 257.227 71.1987 257.092 70.947C256.879 70.618 256.801 70.2695 256.821 69.9404C256.859 69.6113 256.995 69.2823 257.246 68.9725L256.646 67.9853C256.627 67.9659 256.627 67.9272 256.627 67.8885C256.627 67.8498 256.646 67.8304 256.685 67.8111L257.963 67.0174C257.982 66.9981 258.021 66.998 258.059 66.998C258.098 66.998 258.117 67.0174 258.137 67.0561L258.66 67.9079C258.892 67.7724 259.124 67.6562 259.356 67.5401C259.376 67.5207 259.414 67.5207 259.453 67.5401C259.492 67.5401 259.511 67.5594 259.531 67.5981L260.053 68.6822C260.073 68.7209 260.073 68.7402 260.053 68.779C260.034 68.8177 260.015 68.837 259.995 68.837C259.589 68.9725 259.24 69.1274 258.95 69.3016C258.834 69.3791 258.737 69.4565 258.679 69.5339C258.621 69.6114 258.582 69.7081 258.582 69.7856C258.582 69.863 258.582 69.9211 258.582 69.9598C258.601 69.9985 258.601 70.0566 258.621 70.0759C258.64 70.1147 258.679 70.134 258.718 70.1727C258.756 70.2114 258.814 70.2502 258.892 70.2695C258.969 70.3082 259.085 70.3276 259.221 70.3276C259.356 70.3276 259.511 70.2889 259.666 70.2502C259.86 70.1921 260.053 70.1534 260.266 70.1534C260.479 70.1534 260.692 70.1727 260.905 70.2308C261.118 70.2889 261.331 70.405 261.524 70.5599C261.699 70.7147 261.873 70.9083 262.008 71.1406Z" fill="#202D37"/>
<path d="M261.099 75.3608C261.06 75.3608 261.041 75.3608 261.002 75.3415C260.905 75.3221 260.808 75.2447 260.75 75.1479L260.363 74.5285C260.208 74.6059 260.054 74.6833 259.899 74.7608C259.802 74.7995 259.705 74.7995 259.608 74.7801C259.511 74.7414 259.434 74.6833 259.376 74.6059C259.376 74.6059 259.376 74.5865 259.357 74.5865L258.834 73.5025C258.776 73.3864 258.776 73.2702 258.815 73.1734C258.853 73.0573 258.95 72.9798 259.066 72.9411C259.144 72.9218 259.24 72.883 259.318 72.8443C259.415 72.8056 259.511 72.7669 259.647 72.6895C259.783 72.6314 259.899 72.5733 259.995 72.4959C260.092 72.4378 260.17 72.3797 260.208 72.3217C260.247 72.2636 260.247 72.2442 260.247 72.2442C260.247 72.1862 260.247 72.1475 260.247 72.1475C260.247 72.1281 260.228 72.1087 260.228 72.1087C260.228 72.1087 260.228 72.0894 260.189 72.07C260.189 72.07 260.15 72.0313 260.073 71.9926C260.054 71.9926 260.015 71.9732 259.879 71.9732C259.763 71.9732 259.647 71.9926 259.511 72.0507C259.299 72.1281 259.066 72.1668 258.834 72.1668C258.602 72.1668 258.369 72.1281 258.118 72.07C257.866 72.0119 257.614 71.8764 257.382 71.7022C257.15 71.528 256.956 71.2957 256.782 71.0247C256.55 70.6375 256.434 70.231 256.472 69.8439C256.511 69.5148 256.627 69.1857 256.84 68.876L256.337 68.063C256.279 67.9662 256.259 67.8694 256.279 67.7726C256.298 67.6564 256.376 67.5597 256.472 67.5016L257.75 66.7079C257.847 66.6498 257.963 66.6305 258.06 66.6498C258.176 66.6692 258.253 66.7466 258.311 66.8241L258.698 67.4435C258.853 67.3661 259.008 67.2886 259.182 67.2112C259.279 67.1725 259.376 67.1725 259.473 67.1919C259.589 67.2306 259.686 67.308 259.724 67.4048L260.247 68.4888C260.305 68.5856 260.305 68.7018 260.266 68.8179C260.228 68.9341 260.131 69.0308 260.015 69.0696C259.647 69.2051 259.318 69.3599 259.047 69.5148C258.95 69.5729 258.892 69.6116 258.853 69.6696C258.815 69.7084 258.815 69.7471 258.815 69.7471C258.815 69.8245 258.815 69.8439 258.815 69.8632C258.815 69.8826 258.815 69.8826 258.834 69.9019C258.834 69.9019 258.834 69.9213 258.853 69.9213C258.853 69.9213 258.892 69.9407 258.969 69.9794C258.989 69.9794 259.047 69.9987 259.163 69.9987C259.279 69.9987 259.395 69.9794 259.531 69.9213C259.744 69.8632 259.976 69.8245 260.208 69.8052C260.441 69.8052 260.692 69.8245 260.925 69.9019C261.176 69.9794 261.428 70.0955 261.66 70.2697C261.893 70.444 262.086 70.6763 262.26 70.9473C262.512 71.3731 262.628 71.7797 262.609 72.1668C262.589 72.4959 262.454 72.825 262.222 73.1347L262.706 73.9284C262.764 74.0251 262.783 74.1219 262.764 74.2381C262.744 74.3542 262.667 74.4317 262.589 74.4897L261.312 75.2834C261.234 75.3415 261.176 75.3608 261.099 75.3608ZM260.46 73.8703C260.557 73.8703 260.654 73.9284 260.712 74.0058L261.157 74.722L262.144 74.1219L261.641 73.3089C261.583 73.1928 261.583 73.0573 261.68 72.9605C261.912 72.6895 262.047 72.4378 262.067 72.1668C262.086 71.8958 261.989 71.6054 261.796 71.2957C261.66 71.0828 261.525 70.9085 261.35 70.773C261.176 70.6375 261.002 70.5408 260.828 70.502C260.634 70.444 260.46 70.4246 260.286 70.4246C260.112 70.4246 259.937 70.4633 259.763 70.502C259.57 70.5601 259.395 70.5988 259.221 70.5988C259.047 70.5988 258.892 70.5795 258.776 70.5214C258.679 70.4633 258.582 70.4246 258.524 70.3665C258.466 70.3085 258.408 70.2504 258.369 70.1923C258.331 70.1342 258.292 70.0568 258.292 69.9794C258.273 69.9019 258.273 69.8245 258.273 69.7277C258.273 69.5922 258.331 69.4567 258.427 69.3212C258.524 69.2051 258.64 69.1083 258.795 69.0115C259.047 68.8566 259.357 68.7211 259.705 68.5856L259.337 67.8307C259.163 67.9081 258.969 68.0049 258.795 68.1017C258.66 68.1791 258.486 68.1404 258.408 68.0049L257.963 67.2886L256.976 67.8887L257.498 68.7405C257.556 68.8373 257.556 68.9728 257.479 69.0696C257.266 69.3406 257.15 69.6116 257.111 69.8826C257.092 70.1536 257.15 70.4246 257.343 70.715C257.479 70.9279 257.634 71.1021 257.808 71.2376C257.982 71.3731 258.156 71.4699 258.331 71.5086C258.524 71.5667 258.698 71.5861 258.892 71.5861C259.066 71.5861 259.24 71.5667 259.395 71.5086C259.589 71.4506 259.763 71.4118 259.937 71.4118C260.112 71.4118 260.266 71.4312 260.383 71.4893C260.479 71.5474 260.557 71.5861 260.615 71.6441C260.673 71.7022 260.731 71.7603 260.77 71.8184C260.808 71.8764 260.828 71.9539 260.847 72.0313C260.867 72.1087 260.867 72.1862 260.867 72.2829C260.867 72.4185 260.808 72.554 260.712 72.6895C260.615 72.8056 260.499 72.9024 260.344 72.9992C260.228 73.0766 260.092 73.1347 259.937 73.2121C259.783 73.2702 259.666 73.3283 259.57 73.367C259.531 73.3863 259.492 73.3864 259.473 73.4057L259.841 74.18C259.995 74.1026 260.17 74.0058 260.344 73.909C260.363 73.8896 260.421 73.8703 260.46 73.8703ZM259.86 68.5275C259.86 68.5469 259.86 68.5469 259.86 68.5275C259.86 68.5469 259.86 68.5469 259.86 68.5275Z" fill="#202D37"/>
<path d="M259.26 80.8393C256.298 80.8393 252.543 78.8261 249.794 70.3668C247.51 63.3012 239.341 48.4925 228.733 47.7375C228.443 47.7182 228.191 47.5052 228.114 47.2149C228.036 46.9245 228.172 46.6341 228.423 46.4793C229.101 46.0534 244.955 36.2584 249.059 35.1743C251.265 34.5936 253.705 35.5034 256.144 37.807C258.408 39.9557 260.557 43.2272 262.377 47.2729C264.526 52.0737 266.945 57.0293 270.062 60.7072C273.953 65.2757 277.863 66.6114 282.064 64.7917C282.296 64.6949 282.586 64.7337 282.78 64.9079C282.974 65.0821 283.051 65.3531 282.974 65.6048C280.902 72.6123 264.1 80.2199 260.247 80.7813C259.899 80.82 259.589 80.8393 259.26 80.8393ZM230.727 46.6728C236.07 47.8343 240.425 52.0543 243.232 55.5968C247.2 60.5717 249.872 66.2823 251.072 69.9409C253.279 76.7548 256.298 79.9489 260.015 79.4262C263.229 78.9616 277.515 72.4961 281.038 66.5726C270.759 69.4182 264.061 54.416 261.119 47.8343C257.673 40.1106 252.969 35.5615 249.407 36.51C246.232 37.3424 234.947 44.0983 230.727 46.6728Z" fill="#202D37"/>
<path d="M245.942 44.5823C245.69 44.5823 245.458 44.4467 245.342 44.2145C245.168 43.8854 245.303 43.4789 245.632 43.3046C245.652 43.2853 248.478 41.8141 252.059 40.0138C252.388 39.8396 252.795 39.9751 252.969 40.3042C253.143 40.6333 253.008 41.0398 252.679 41.214C249.117 43.0336 246.29 44.4855 246.271 44.5048C246.155 44.5629 246.039 44.5823 245.942 44.5823Z" fill="#202D37"/>
<path d="M245.4 48.9956C245.187 48.9956 244.994 48.8988 244.858 48.7246C244.645 48.4148 244.703 47.989 245.013 47.776C246.213 46.9049 250.143 44.8917 254.169 43.1108C254.518 42.9559 254.905 43.1108 255.06 43.4593C255.215 43.8077 255.06 44.1948 254.711 44.3497C250.82 46.0725 246.91 48.047 245.807 48.8601C245.691 48.9375 245.536 48.9956 245.4 48.9956Z" fill="#202D37"/>
<path d="M250.511 53.1573C250.278 53.1573 250.065 53.0411 249.93 52.8282C249.736 52.5184 249.833 52.0926 250.143 51.899C250.182 51.8796 253.782 49.6535 256.473 48.2404C256.802 48.0662 257.208 48.2017 257.383 48.5307C257.557 48.8598 257.421 49.2663 257.092 49.4406C254.46 50.815 250.878 53.0218 250.84 53.0411C250.762 53.1185 250.627 53.1573 250.511 53.1573Z" fill="#202D37"/>
<path d="M253.646 58.539C253.433 58.539 253.22 58.4422 253.104 58.268C252.891 57.9582 252.949 57.5324 253.259 57.3194C253.278 57.3001 255.756 55.5192 258.079 54.048C258.389 53.8544 258.815 53.9318 259.008 54.2609C259.202 54.5706 259.124 54.9965 258.795 55.1901C256.492 56.6419 254.072 58.4035 254.033 58.4228C253.937 58.5003 253.782 58.539 253.646 58.539Z" fill="#202D37"/>
<path d="M0.8463 7.8399C0.478502 7.8399 0.168778 7.54954 0.168778 7.18174C0.168778 7.14303 0.168782 7.04624 0.149425 6.9301C-0.257089 2.07129 0.207493 0.87111 1.03988 0.542027C2.12391 0.116156 5.99547 0.0193578 6.76978 0C6.76978 0 6.76977 0 6.78913 0C7.15693 0 7.46665 0.290371 7.46665 0.658169C7.46665 1.02597 7.1763 1.33569 6.80851 1.35504C5.18245 1.39376 2.41428 1.52927 1.62061 1.76157C1.50446 1.95514 1.19474 2.88432 1.52382 6.79459C1.54318 7.02688 1.54318 7.08495 1.54318 7.14303C1.52382 7.53018 1.2141 7.8399 0.8463 7.8399Z" fill="#FBD931"/>
<path d="M38.5556 7.18174C38.5362 7.18174 38.5168 7.18174 38.4975 7.18174C38.1297 7.14303 37.8393 6.81395 37.878 6.44615C37.9942 5.09111 38.1103 2.71009 37.9167 1.9745C37.5296 1.64541 35.4777 1.35504 33.4451 1.35504C33.0773 1.35504 32.7676 1.04532 32.7676 0.677522C32.7676 0.309725 33.0773 0 33.4451 0C35.8648 0 38.8072 0.271014 39.1944 1.52927C39.5428 2.65202 39.2718 5.92349 39.2137 6.56229C39.1943 6.93009 38.904 7.18174 38.5556 7.18174Z" fill="#FBD931"/>
<path d="M36.077 33.7209C35.0317 33.7209 34.0638 33.5854 33.7348 33.5273C33.367 33.4692 33.1153 33.1208 33.1734 32.753C33.2314 32.3852 33.5799 32.1335 33.9477 32.1916C35.9609 32.5013 37.8192 32.3465 38.0128 31.998C38.1096 30.5075 38.0128 27.72 38.0128 27.6813C37.9935 27.3135 38.2838 26.9844 38.671 26.9844C39.0388 26.9844 39.3679 27.2554 39.3679 27.6425C39.3679 27.7587 39.4647 30.5269 39.3679 32.0948C39.3485 32.482 39.1549 32.8304 38.8258 33.1014C38.2257 33.5854 37.1224 33.7209 36.077 33.7209Z" fill="#FBD931"/>
<path d="M6.18881 34.108C5.49193 34.108 3.11093 34.0693 2.2979 33.6241C2.00753 33.4692 1.21387 33.0434 1.21387 27.6619C1.21387 27.2941 1.52359 26.9844 1.89139 26.9844C2.25919 26.9844 2.56891 27.2941 2.56891 27.6619C2.56891 29.5977 2.74312 31.9206 3.01413 32.4626C3.47871 32.6369 4.96927 32.7336 6.18881 32.7336C6.55661 32.7336 6.86633 33.0434 6.86633 33.4111C6.86633 33.7789 6.57596 34.108 6.18881 34.108Z" fill="#FBD931"/>
<path d="M12.1519 16.7437C10.5065 16.7437 8.7062 16.705 7.79639 16.5695C7.46731 16.5114 6.90592 16.434 6.77042 15.9113C6.42198 14.6143 6.38327 10.1233 8.37712 7.60682C9.65474 6.00013 12.7133 5.61296 17.4946 6.42599C17.6108 6.44535 17.7076 6.46471 17.7463 6.46471C17.9979 6.48407 18.2109 6.61957 18.327 6.85186C18.4045 7.00673 18.598 7.37452 18.5787 11.4977C18.5593 15.6403 18.3657 15.9307 18.2689 16.0855C18.056 16.4146 17.9205 16.6469 13.4682 16.7243C13.0617 16.7437 12.6165 16.7437 12.1519 16.7437ZM8.00932 15.2338C9.48051 15.4661 15.5395 15.4467 17.1075 15.2144C17.243 13.8594 17.2623 9.15544 17.1462 7.76168C11.6679 6.83251 9.96446 7.80039 9.4418 8.45856C7.89318 10.3943 7.81574 13.9175 8.00932 15.2338ZM17.7076 6.48406H17.7269C17.7269 6.48406 17.7076 6.48406 17.7076 6.48406Z" fill="#202D37"/>
<path d="M13.9123 14.0154H12.7702C12.0926 14.0154 11.5312 13.4541 11.5312 12.7765V11.9635C11.5312 11.286 12.0926 10.7246 12.7702 10.7246H13.9123C14.5898 10.7246 15.1512 11.286 15.1512 11.9635V12.7765C15.1512 13.4734 14.5898 14.0154 13.9123 14.0154Z" fill="#202D37"/>
<path d="M13.9126 14.3052H12.7705C11.9187 14.3052 11.2412 13.6276 11.2412 12.7759V11.9629C11.2412 11.1111 11.9187 10.4336 12.7705 10.4336H13.9126C14.7643 10.4336 15.4419 11.1111 15.4419 11.9629V12.7759C15.4419 13.6276 14.745 14.3052 13.9126 14.3052ZM12.7705 11.0337C12.2478 11.0337 11.8219 11.4596 11.8219 11.9822V12.7952C11.8219 13.3179 12.2478 13.7438 12.7705 13.7438H13.9126C14.4353 13.7438 14.8611 13.3179 14.8611 12.7952V11.9822C14.8611 11.4596 14.4353 11.0337 13.9126 11.0337H12.7705Z" fill="#202D37"/>
<path d="M13.9123 26.3279H12.7702C12.0926 26.3279 11.5312 25.7666 11.5312 25.089V24.276C11.5312 23.5985 12.0926 23.0371 12.7702 23.0371H13.9123C14.5898 23.0371 15.1512 23.5985 15.1512 24.276V25.089C15.1512 25.7666 14.5898 26.3279 13.9123 26.3279Z" fill="#202D37"/>
<path d="M13.9126 26.6177H12.7705C11.9187 26.6177 11.2412 25.9401 11.2412 25.0884V24.2754C11.2412 23.4236 11.9187 22.7461 12.7705 22.7461H13.9126C14.7643 22.7461 15.4419 23.4236 15.4419 24.2754V25.0884C15.4419 25.9401 14.745 26.6177 13.9126 26.6177ZM12.7705 23.3268C12.2478 23.3268 11.8219 23.7527 11.8219 24.2754V25.0884C11.8219 25.611 12.2478 26.0369 12.7705 26.0369H13.9126C14.4353 26.0369 14.8611 25.611 14.8611 25.0884V24.2754C14.8611 23.7527 14.4353 23.3268 13.9126 23.3268H12.7705Z" fill="#202D37"/>
<path d="M27.0177 13.4158H25.8756C25.1981 13.4158 24.6367 12.8544 24.6367 12.1769V11.3639C24.6367 10.6864 25.1981 10.125 25.8756 10.125H27.0177C27.6952 10.125 28.2566 10.6864 28.2566 11.3639V12.1769C28.2566 12.8544 27.6952 13.4158 27.0177 13.4158Z" fill="#202D37"/>
<path d="M27.018 13.7055H25.8759C25.0242 13.7055 24.3467 13.028 24.3467 12.1763V11.3632C24.3467 10.5115 25.0242 9.83398 25.8759 9.83398H27.018C27.8698 9.83398 28.5473 10.5115 28.5473 11.3632V12.1763C28.5473 13.0087 27.8504 13.7055 27.018 13.7055ZM25.8759 10.4147C25.3533 10.4147 24.9274 10.8406 24.9274 11.3632V12.1763C24.9274 12.6989 25.3533 13.1248 25.8759 13.1248H27.018C27.5407 13.1248 27.9666 12.6989 27.9666 12.1763V11.3632C27.9666 10.8406 27.5407 10.4147 27.018 10.4147H25.8759Z" fill="#202D37"/>
<path d="M27.0177 26.3279H25.8756C25.1981 26.3279 24.6367 25.7666 24.6367 25.089V24.276C24.6367 23.5985 25.1981 23.0371 25.8756 23.0371H27.0177C27.6952 23.0371 28.2566 23.5985 28.2566 24.276V25.089C28.2566 25.7666 27.6952 26.3279 27.0177 26.3279Z" fill="#202D37"/>
<path d="M27.018 26.6177H25.8759C25.0242 26.6177 24.3467 25.9401 24.3467 25.0884V24.2754C24.3467 23.4236 25.0242 22.7461 25.8759 22.7461H27.018C27.8698 22.7461 28.5473 23.4236 28.5473 24.2754V25.0884C28.5473 25.9401 27.8504 26.6177 27.018 26.6177ZM25.8759 23.3268C25.3533 23.3268 24.9274 23.7527 24.9274 24.2754V25.0884C24.9274 25.611 25.3533 26.0369 25.8759 26.0369H27.018C27.5407 26.0369 27.9666 25.611 27.9666 25.0884V24.2754C27.9666 23.7527 27.5407 23.3268 27.018 23.3268H25.8759Z" fill="#202D37"/>
<path d="M26.4568 16.9954C24.8114 16.9954 23.0111 16.918 22.1594 16.7244C21.3851 16.5502 21.2302 16.1244 21.2496 15.8146C21.2496 15.6598 21.2689 15.1758 21.2689 14.5564C21.3851 6.63904 21.5593 6.46481 21.8884 6.17444C22.5853 5.55499 27.0763 5.47756 29.6896 6.77453C31.335 7.58755 32.0512 9.92986 32.3803 11.7688C32.6707 13.4917 32.7288 15.563 32.4965 16.105C32.3416 16.4728 32.1674 16.8599 27.7151 16.9567C27.3086 16.9761 26.8827 16.9954 26.4568 16.9954ZM22.5853 15.4275C24.0758 15.7178 29.8251 15.6791 31.2382 15.3694C31.335 14.0531 31.0059 8.96197 29.0701 7.99408C27.0376 6.98747 23.8242 7.02618 22.8756 7.2004C22.7014 8.40058 22.624 12.9884 22.6046 14.5757C22.6046 14.9242 22.6046 15.2145 22.5853 15.4275Z" fill="#202D37"/>
<path d="M15.7131 32.2491C13.2353 32.2491 8.89919 31.7652 7.50543 28.5518C6.24717 25.6481 6.88598 20.7893 7.31185 20.1505C7.50543 19.8408 7.71836 19.5117 11.0866 19.4149C12.7901 19.3762 14.8033 19.4149 16.1971 19.5311C17.7263 19.6472 18.1909 19.8021 18.3651 20.2473C18.5781 20.7312 18.52 23.9834 18.4813 25.8804C18.3458 31.0489 18.0941 31.5909 17.9973 31.7652C17.8618 32.0555 17.6295 32.1523 17.5134 32.1717C17.494 32.1717 16.7778 32.2491 15.7131 32.2491ZM8.43459 20.9829C8.2023 21.9314 7.75708 25.7449 8.74433 28.0098C10.0219 30.9522 15.2872 31.0102 16.8359 30.8747C17.0875 29.2487 17.2424 22.6089 17.1262 20.9829C15.6744 20.7312 9.7122 20.6344 8.43459 20.9829Z" fill="#202D37"/>
<path d="M22.0426 23.7128H22.0233C21.6555 23.6935 21.3458 23.3838 21.3651 23.016C21.3845 22.3771 21.3845 21.8351 21.3845 21.3705C21.3845 20.0736 21.3845 19.5896 21.7329 19.2412C21.9846 18.9895 22.0426 18.9315 28.6049 19.0476C28.9727 19.0476 29.2825 19.3573 29.2631 19.7445C29.2631 20.1123 28.9534 20.4027 28.5856 20.4027C28.5856 20.4027 28.5856 20.4027 28.5662 20.4027C26.282 20.3639 23.7268 20.3446 22.7395 20.3639C22.7202 20.635 22.7202 21.0027 22.7202 21.3705C22.7202 21.8351 22.7202 22.3965 22.7008 23.0547C22.7008 23.4225 22.4104 23.7128 22.0426 23.7128Z" fill="#202D37"/>
<path d="M27.9471 31.5329C27.6761 31.5329 27.4245 31.3781 27.3277 31.1264C27.1728 30.778 27.347 30.3908 27.6761 30.2359C29.5732 29.4229 31.9348 28.4163 31.5283 19.473C31.509 19.1052 31.7993 18.7761 32.1671 18.7568C32.5349 18.7374 32.864 19.0278 32.8834 19.3956C33.3092 28.5131 30.9089 30.3134 28.2181 31.4748C28.1213 31.5135 28.0439 31.5329 27.9471 31.5329Z" fill="#202D37"/>
<path d="M23.3404 31.9592C22.1403 31.9592 21.637 31.843 21.424 31.3785C21.2885 31.0881 21.2692 30.6042 21.2498 28.2231C21.2498 27.7198 21.2305 27.1585 21.2305 26.5777C21.2305 26.2099 21.5208 25.9002 21.8886 25.8809C22.2564 25.8809 22.5662 26.1712 22.5855 26.539C22.5855 27.1197 22.6049 27.6811 22.6049 28.2038C22.6242 29.133 22.6242 30.0815 22.6629 30.5848C23.1469 30.6235 24.0567 30.6041 24.5019 30.5848C24.7536 30.5848 24.9665 30.5654 25.1214 30.5654C25.4892 30.5654 25.7989 30.8752 25.7989 31.243C25.7989 31.6108 25.4892 31.9205 25.1214 31.9205C24.9859 31.9205 24.7923 31.9205 24.5406 31.9398C24.0761 31.9592 23.6695 31.9592 23.3404 31.9592Z" fill="#202D37"/>
<path d="M165.587 113.437C165.568 113.437 165.548 113.437 165.509 113.437C165.142 113.398 164.871 113.069 164.909 112.701C165.916 103.041 169.497 88.2714 170.272 85.1161C169.168 84.7289 166.671 83.8578 164.193 82.8319C157.999 80.2573 157.224 79.0184 157.302 78.0699C157.36 77.431 157.437 76.5406 169.555 71.8366C175.363 69.5718 181.228 67.5005 181.286 67.4811C181.635 67.365 182.022 67.5392 182.157 67.8877C182.273 68.2361 182.099 68.6233 181.751 68.7588C171.278 72.4561 160.012 76.9277 158.696 78.2441C158.87 78.5538 159.857 79.5798 164.987 81.6898C168.123 82.9867 171.239 84.0127 171.278 84.032C171.607 84.1482 171.801 84.4966 171.723 84.8451C171.685 85.0193 167.368 102.132 166.245 112.856C166.226 113.185 165.935 113.437 165.587 113.437Z" fill="#202D37"/>
<path d="M179.893 92.317C179.526 92.317 179.216 92.0073 179.216 91.6395C179.216 91.2717 179.526 90.962 179.893 90.962C183.204 90.962 185.139 89.4908 185.314 86.8194C185.333 86.4516 185.662 86.1612 186.03 86.1806C186.398 86.2 186.688 86.529 186.669 86.8968C186.436 90.2844 183.9 92.317 179.893 92.317Z" fill="#202D37"/>
<path d="M187.211 119.999C187.191 119.999 187.152 119.999 187.133 119.999C186.765 119.96 186.494 119.631 186.533 119.244C187.036 114.598 187.753 109.023 188.662 102.674C189.843 94.3501 190.927 87.633 190.927 87.5555C190.985 87.2265 191.276 86.9748 191.605 86.9942C193.831 87.0329 195.767 86.9361 197.354 86.6844C200.664 86.1618 201.748 85.1745 202.097 84.6325C202.329 84.2647 202.387 83.8582 202.252 83.4323C201.826 82.0192 197.141 80.7803 190.869 81.1868C190.501 81.2062 190.172 80.9352 190.153 80.548C190.134 80.1802 190.405 79.8511 190.792 79.8318C196.367 79.4833 202.735 80.3351 203.568 83.0452C203.819 83.8582 203.703 84.6519 203.258 85.3681C202.426 86.6844 200.529 87.5943 197.586 88.0395C196.057 88.2718 194.257 88.3879 192.185 88.3686C191.895 90.1688 190.985 95.9762 190.017 102.887C189.127 109.217 188.411 114.773 187.907 119.399C187.849 119.748 187.559 119.999 187.211 119.999Z" fill="#202D37"/>
<path d="M192.089 84.6533C191.76 84.6533 191.469 84.4017 191.411 84.0726C191.353 83.7048 191.624 83.3564 191.992 83.3176C194.721 82.9498 197.78 83.0854 197.915 83.1047C198.283 83.1241 198.574 83.4338 198.554 83.821C198.535 84.1887 198.206 84.4791 197.838 84.4598C197.799 84.4598 194.779 84.3049 192.166 84.6727C192.147 84.6533 192.127 84.6533 192.089 84.6533Z" fill="#202D37"/>
<path d="M191.061 69.4182C191.061 69.4182 195.843 67.2114 199.405 71.1797C203.547 75.845 199.076 80.8005 198.979 80.9554C196.346 80.4328 193.404 80.4134 193.404 80.4134C193.694 85.1367 191.758 85.8723 190.926 85.7561C190.074 85.64 190.384 83.9752 190.384 83.9752C178.518 79.8714 182.215 69.7666 182.215 69.7666C179.969 70.6958 175.788 70.1925 175.691 70.2312C177.046 63.3011 188.003 64.1335 191.061 69.4182Z" fill="#202D37"/>
<path d="M191.082 86.452C190.985 86.452 190.907 86.452 190.811 86.4327C190.462 86.3746 190.172 86.2004 189.978 85.9294C189.668 85.5035 189.63 84.9034 189.649 84.4582C185.932 83.0644 183.358 80.9351 182.022 78.1088C180.648 75.2245 180.919 72.3402 181.248 70.7722C179.293 71.1787 176.892 71.0045 175.982 70.9465C175.866 70.9465 175.77 70.9271 175.731 70.9271C175.557 70.9464 175.382 70.8884 175.247 70.7722C175.053 70.6174 174.976 70.3657 175.015 70.1334C175.595 67.2491 177.763 65.2746 180.977 64.7326C184.984 64.0551 189.32 65.7198 191.333 68.6042C192.785 68.1396 196.811 67.2685 199.909 70.7529C203.896 75.2439 200.644 79.9865 199.541 81.3416L199.502 81.3803C199.347 81.5932 199.076 81.69 198.825 81.6513C197.044 81.3029 195.108 81.1867 194.082 81.1286C194.121 83.3354 193.656 84.9034 192.688 85.7939C192.243 86.2004 191.643 86.452 191.082 86.452ZM191.062 85.097C191.178 85.097 191.469 85.0776 191.798 84.7873C192.224 84.4001 192.901 83.3161 192.727 80.4705C192.708 80.2769 192.785 80.1027 192.921 79.9672C193.056 79.8317 193.23 79.7542 193.424 79.7542C193.54 79.7542 196.153 79.793 198.708 80.2382C199.928 78.6315 201.941 75.0503 198.921 71.6433C195.747 68.0815 191.411 70.0173 191.372 70.0366C191.062 70.1915 190.675 70.056 190.501 69.7656C188.933 67.0749 184.868 65.4488 181.228 66.0489C179.815 66.2812 177.434 67.0555 176.563 69.6108C177.86 69.6882 180.435 69.7656 181.964 69.1462C182.216 69.0494 182.506 69.1075 182.7 69.2817C182.893 69.4753 182.951 69.7463 182.874 69.9979C182.854 70.0366 181.519 73.8308 183.28 77.5281C184.519 80.122 186.997 82.0772 190.636 83.3354C190.946 83.4516 191.14 83.7613 191.082 84.1097C190.985 84.4775 190.985 84.9228 191.062 85.097Z" fill="#202D37"/>
<path d="M198.98 101.978C195.999 103.953 192.263 104.708 189.34 102.772C190.54 94.3513 191.605 87.6728 191.605 87.6728C193.986 87.7115 195.921 87.5954 197.47 87.3438C195.689 92.7446 195.96 97.4679 197.664 97.7195C199.541 98.0099 200.258 97.3904 201.167 96.7323C202.077 96.1128 202.774 99.4424 198.98 101.978Z" fill="#202D37"/>
<path d="M193.212 104.59C191.683 104.59 190.231 104.184 188.973 103.351C188.76 103.216 188.643 102.945 188.682 102.693C189.863 94.3695 190.947 87.6523 190.947 87.5749C191.005 87.2458 191.295 86.9942 191.625 87.0135C193.851 87.0522 195.786 86.9554 197.374 86.7038C197.606 86.6651 197.838 86.7619 197.993 86.9361C198.148 87.1103 198.187 87.362 198.129 87.5943C196.696 91.9498 196.696 95.589 197.432 96.7892C197.548 96.9634 197.664 97.0796 197.78 97.0989C199.252 97.3312 199.832 96.9247 200.607 96.3633L200.8 96.2278C201.129 95.9955 201.497 95.9568 201.845 96.1117C202.271 96.3053 202.542 96.8086 202.6 97.4667C202.697 98.7637 201.904 100.893 199.387 102.577C197.316 103.913 195.186 104.59 193.212 104.59ZM190.076 102.442C192.457 103.797 195.612 103.429 198.613 101.435C200.607 100.119 201.071 98.6863 201.168 98.1442C201.207 97.912 201.226 97.7184 201.207 97.5829C200.374 98.183 199.464 98.725 197.548 98.4346C197.18 98.3765 196.677 98.1636 196.251 97.5054C195.244 95.8794 195.361 92.1433 196.503 88.1943C195.225 88.3298 193.773 88.4073 192.167 88.3879C191.896 90.1301 191.024 95.7245 190.076 102.442Z" fill="#202D37"/>
<path d="M204.167 211.774C203.761 211.774 203.374 211.735 203.025 211.677C202.657 211.619 202.406 211.27 202.464 210.903C202.522 210.535 202.87 210.283 203.238 210.341C205.619 210.709 210.768 209.857 218.686 199.849C233.668 180.917 237.985 170.116 235.14 158.559C232.081 146.131 217.814 137.73 213.517 135.446C211.252 134.246 206.568 131.4 201.593 128.361C195.63 124.741 188.236 120.25 187.171 119.979C186.958 119.998 186.532 120.173 186.068 120.386C184.229 121.179 180.783 122.67 174.608 121.141C168.742 119.708 167.271 116.804 166.303 114.869C165.936 114.133 165.645 113.572 165.239 113.32C163.613 112.333 148.068 111.036 144.371 110.958H143.984C137.906 110.842 132.195 110.378 131.576 107.784C131.246 106.371 130.414 105.132 126.639 105.712C125.11 105.945 124.084 105.77 123.407 105.151C122.632 104.435 122.594 103.293 122.671 102.267C122.71 101.841 122.806 100.524 120.638 100.331L120.522 100.312C118.393 100.137 117.754 99.363 117.638 94.6978C117.541 91.1553 109.237 83.3735 105.249 79.6374C103.991 78.4566 103.081 77.6049 102.674 77.1403C101.455 75.7271 95.3958 74.1204 91.7566 73.6365C91.3888 73.5784 91.1177 73.2494 91.1758 72.8816C91.2339 72.5138 91.563 72.2427 91.9308 72.3008C94.8732 72.688 101.939 74.2366 103.7 76.2692C104.049 76.6757 104.997 77.5661 106.178 78.6695C112.315 84.4188 118.896 90.8843 118.993 94.6784C119.051 96.8078 119.225 98.0467 119.535 98.5693C119.709 98.8597 119.883 98.9178 120.638 98.9758L120.755 98.9952C122.942 99.1888 124.161 100.447 124.026 102.383C123.949 103.37 124.045 103.912 124.336 104.164C124.665 104.473 125.381 104.532 126.446 104.377C127.82 104.164 131.982 103.544 132.911 107.474C132.969 107.745 133.473 108.635 137.17 109.158C139.57 109.506 142.358 109.565 144.042 109.584H144.429C146.752 109.623 163.768 110.803 165.974 112.139C166.71 112.584 167.097 113.339 167.542 114.23C168.452 116.03 169.71 118.508 174.956 119.785C180.706 121.199 183.745 119.882 185.564 119.089C186.261 118.798 186.765 118.566 187.249 118.585C188.1 118.605 191.565 120.637 202.328 127.161C207.284 130.181 211.968 133.026 214.195 134.207C218.627 136.549 233.301 145.222 236.495 158.191C239.456 170.212 235.082 181.324 219.789 200.643C212.685 209.625 207.516 211.774 204.167 211.774Z" fill="#202D37"/>
<path d="M192.321 197.025C192.031 197.025 191.76 196.831 191.663 196.541C190.327 191.856 190.618 190.772 191.856 188.585C192.34 187.752 194.044 185.72 196.231 183.126C199.909 178.751 205.465 172.169 206.181 169.75C207.227 166.226 205.813 161.193 188.662 148.379C188.372 148.146 188.295 147.74 188.527 147.43C188.759 147.14 189.166 147.062 189.475 147.294C206.297 159.858 208.833 165.51 207.478 170.117C206.685 172.789 201.477 179.003 197.277 183.977C195.225 186.417 193.463 188.507 193.057 189.223C191.992 191.082 191.76 191.798 192.999 196.134C193.095 196.502 192.902 196.87 192.534 196.967C192.437 197.025 192.379 197.025 192.321 197.025Z" fill="#202D37"/>
<path d="M141.274 144.062C141.255 144.062 141.216 144.062 141.197 144.062C137.925 143.656 108.927 139.745 99.0936 131.17C88.1178 121.588 77.0451 94.1383 76.9483 93.8673C75.8643 91.0991 75.7288 88.8343 76.4063 84.5756C76.4644 84.2078 76.8128 83.9561 77.1806 84.0142C77.5484 84.0723 77.8001 84.4207 77.742 84.7885C77.1032 88.8149 77.2 90.8281 78.2066 93.3834C78.3034 93.6544 89.2405 120.775 99.9841 130.163C109.508 138.487 138.138 142.32 141.371 142.726C141.739 142.765 142.01 143.114 141.952 143.481C141.913 143.81 141.603 144.062 141.274 144.062Z" fill="#202D37"/>
<path d="M133.957 157.573C133.84 157.573 133.705 157.534 133.608 157.476C133.298 157.283 133.182 156.857 133.376 156.547C134.847 154.147 142.222 141.816 144.042 134.131C144.119 133.763 144.487 133.531 144.855 133.627C145.223 133.705 145.436 134.073 145.358 134.441C143.5 142.338 136.009 154.844 134.537 157.263C134.402 157.457 134.17 157.573 133.957 157.573Z" fill="#202D37"/>
<path d="M130.879 250.82C116.09 250.82 113.341 246.542 112.799 242.883C112.315 239.689 111.405 232.256 110.979 224.745C110.96 224.377 111.25 224.048 111.618 224.029C111.986 224.009 112.315 224.3 112.334 224.668C112.76 232.12 113.67 239.496 114.154 242.67C114.425 244.509 115.335 246.813 120.039 248.226C125.904 249.988 136.125 249.852 150.411 247.781C164.755 245.71 183.397 242.728 199.87 240.096C217.234 237.328 232.217 234.927 237.386 234.366C246.968 233.321 252.349 232.14 251.362 219.944C250.394 208.078 246.271 165.433 245.032 156.354C243.871 147.895 240.89 147.12 229.643 147.74C229.275 147.759 228.946 147.469 228.926 147.101C228.907 146.733 229.197 146.404 229.565 146.385C235.527 146.056 239.244 146.133 241.799 147.449C244.355 148.785 245.69 151.302 246.348 156.16C247.607 165.259 251.73 207.943 252.698 219.828C253.762 232.991 247.684 234.618 237.521 235.721C232.391 236.282 217.409 238.683 200.064 241.451C183.61 244.083 164.949 247.065 150.585 249.136C142.358 250.317 135.932 250.82 130.879 250.82Z" fill="#202D37"/>
<path d="M76.9483 85.5811C76.7934 85.5811 76.6192 85.5424 76.445 85.4263C75.3609 84.8262 71.8959 80.219 72.5734 78.1284C73.6768 74.6827 83.5493 68.3721 88.8146 67.7526C89.2598 67.6946 89.9567 67.8881 91.2149 69.8046C91.8344 70.7337 92.4926 71.9533 92.5894 72.6308C92.7055 73.3277 92.2603 73.618 91.9699 73.6761C90.6149 73.9665 79.6971 82.7743 77.5484 85.3101C77.4128 85.465 77.1999 85.5811 76.9483 85.5811ZM88.8727 69.127C83.8009 69.7852 74.7221 75.8442 73.851 78.5736C73.5026 79.677 75.8061 83.1808 76.8515 84.0906C79.1938 81.6515 88.3306 73.9665 91.1762 72.5727C90.8278 71.6048 89.4534 69.4368 88.8727 69.127Z" fill="#202D37"/>
<path d="M72.0505 73.8506C71.9344 73.8506 71.8182 73.8119 71.7021 73.7539C69.8244 72.6698 68.6823 70.1339 68.7791 67.2883C68.8371 65.701 69.263 64.3266 70.018 63.2813C67.1143 63.4749 62.5265 63.4168 61.8877 61.0358C61.0553 57.9385 66.6304 56.4093 72.0312 54.9187C72.3796 54.8219 72.728 54.7252 73.0571 54.6284C71.8569 50.5632 70.2503 46.1303 69.534 45.627C69.2824 45.4334 68.8565 45.2011 68.3725 44.9108C66.3206 43.6719 62.8749 41.6199 62.4491 38.9098C62.1781 37.1483 62.662 35.6771 63.746 34.9609C64.5978 34.4188 65.6625 34.4382 66.5529 35.0189C66.9982 35.3093 68.0822 35.9287 69.3598 36.6643C74.6445 39.7035 77.2384 41.2715 77.7224 42.0458C78.3999 43.1298 87.227 65.8172 88.2143 68.4111C88.3498 68.7595 88.1756 69.1467 87.8271 69.2822C87.4787 69.4177 87.0915 69.2435 86.956 68.895C83.0651 58.8677 77.0836 43.6138 76.5802 42.762C76.0963 42.1039 71.102 39.2196 68.7016 37.8452C67.3659 37.0709 66.3013 36.4708 65.8173 36.161C65.3721 35.8707 64.8688 35.8513 64.4816 36.103C63.8622 36.5095 63.5912 37.4774 63.7847 38.6969C64.1138 40.7875 67.2111 42.6459 69.0694 43.7493C69.5727 44.059 70.018 44.3107 70.3277 44.543C71.7989 45.6076 73.9282 52.77 74.5477 54.9381C74.6058 55.1123 74.567 55.3059 74.4896 55.4608C74.3928 55.6156 74.2573 55.7318 74.0831 55.7898C73.5411 55.9447 72.9797 56.0996 72.3796 56.2544C68.5274 57.3191 62.7007 58.9064 63.1847 60.7067C63.5718 62.1779 68.6436 62.1973 71.9344 61.752C72.2635 61.7133 72.5732 61.9069 72.67 62.2166C72.7668 62.5263 72.6119 62.8748 72.3215 63.0296C71.0246 63.6684 70.1922 65.2945 70.1147 67.3464C70.0373 69.65 70.9278 71.76 72.3603 72.5924C72.6893 72.786 72.7861 73.1925 72.6119 73.5216C72.5151 73.7345 72.2828 73.8506 72.0505 73.8506Z" fill="#202D37"/>
<path d="M73.2123 79.0191C73.1736 79.0191 73.1349 79.0191 73.0961 78.9998C71.625 78.7481 68.76 77.1414 66.379 74.683C64.269 72.4956 61.7525 68.8563 61.8106 63.9588C61.8106 63.591 62.1203 63.2812 62.4881 63.2812C62.8559 63.2812 63.1656 63.591 63.1656 63.9588C63.1075 68.3917 65.4111 71.7212 67.3469 73.7344C69.6698 76.1348 72.225 77.4705 73.3091 77.6641C73.6769 77.7222 73.9285 78.0706 73.8705 78.4384C73.8124 78.7868 73.522 79.0191 73.2123 79.0191Z" fill="#202D37"/>
<path d="M67.9658 57.5127C67.7141 57.5127 67.4818 57.3772 67.3463 57.1256C65.8945 54.1445 64.9847 50.2923 66.7269 48.3759C67.4818 47.5628 68.9917 46.8466 72.0309 48.0274C72.3793 48.1629 72.5536 48.5501 72.4181 48.8985C72.2826 49.247 71.8954 49.4212 71.547 49.2857C70.2694 48.7824 68.5659 48.3759 67.7335 49.2857C66.7075 50.4084 67.0366 53.3895 68.5659 56.5255C68.7207 56.8546 68.5852 57.2611 68.2561 57.4353C68.1594 57.4934 68.0626 57.5127 67.9658 57.5127Z" fill="#202D37"/>
<path d="M63.8239 59.3123C63.611 59.3123 63.3787 59.1962 63.2626 59.0026C61.7139 56.641 60.7848 53.0791 62.1398 51.1433C62.7012 50.3303 63.882 49.4979 66.3404 50.0787C66.7082 50.1561 66.9212 50.5239 66.8437 50.8917C66.7663 51.2595 66.3985 51.4724 66.0307 51.395C64.6563 51.0659 63.7271 51.2401 63.2432 51.9177C62.314 53.2533 63.0883 56.2732 64.3853 58.2477C64.5982 58.5574 64.5015 58.9832 64.1917 59.1768C64.0949 59.2736 63.9594 59.3123 63.8239 59.3123Z" fill="#202D37"/>
<path d="M64.695 65.255C63.4561 65.255 61.9075 64.6356 60.2233 63.416C57.8423 61.6932 56.6809 58.2862 57.7455 56.1182C58.1133 55.3826 59.2748 53.7759 62.3333 54.6857C62.7011 54.7825 62.8947 55.1696 62.7979 55.5374C62.6818 55.9052 62.314 56.0988 61.9462 56.002C60.9009 55.6923 59.5265 55.5568 58.9457 56.7376C58.2488 58.1507 59.0038 60.8995 60.9977 62.332C63.2432 63.9581 64.7724 64.1129 65.3919 63.7451C65.7016 63.5709 65.8371 63.2031 65.779 62.6998C65.7403 62.332 66.0113 62.0029 66.3791 61.9642C66.7469 61.9255 67.076 62.1965 67.1147 62.5643C67.2115 63.6096 66.8243 64.4614 66.05 64.9259C65.7016 65.1389 65.237 65.255 64.695 65.255Z" fill="#202D37"/>
<path d="M25.6693 164.214C21.5073 164.214 20.675 162.955 20.0749 160.594C19.3199 157.593 18.7779 153.877 17.7713 144.682C17.7519 144.449 17.7326 144.236 17.6939 144.023L17.5777 143.036C17.3454 140.887 17.1518 139.203 17.1131 137.848C16.997 133.919 18.1778 132.583 22.3591 131.925C34.2641 130.047 50.3117 128.615 56.3707 128.073C56.9708 128.015 57.4741 127.976 57.8613 127.937C61.2295 127.627 63.0879 128.789 64.1138 131.828C64.559 133.144 64.8494 134.867 65.043 137.132L65.0624 137.326C65.1011 137.693 64.8107 138.023 64.4429 138.061C64.0751 138.1 63.746 137.81 63.7073 137.442L63.6879 137.248C63.5137 135.099 63.2234 133.473 62.8168 132.273C61.9845 129.834 60.7262 129.06 57.958 129.292C57.5709 129.331 57.0869 129.37 56.4675 129.428C50.4279 129.97 34.3996 131.383 22.5527 133.261C19.0295 133.822 18.352 134.577 18.4488 137.81C18.4875 139.107 18.6811 140.791 18.9134 142.901L19.0295 143.888C19.0489 144.101 19.0876 144.333 19.107 144.546C20.0942 153.664 20.6362 157.342 21.3718 160.265C21.9719 162.607 22.301 163.904 35.0965 161.813C35.4643 161.755 35.8127 162.007 35.8708 162.375C35.9289 162.742 35.6772 163.091 35.3094 163.149C30.9152 163.865 27.8373 164.214 25.6693 164.214Z" fill="#202D37"/>
<path d="M64.3658 137.169C56.7969 138.195 32.6772 141.447 18.3137 143.48C18.0427 141.099 17.8297 139.26 17.791 137.808C28.1668 136.627 54.9773 133.142 63.4754 132.039C63.9013 133.317 64.1916 134.981 64.3658 137.169Z" fill="#202D37"/>
<path d="M18.314 143.77C18.2559 143.77 18.1785 143.751 18.1398 143.712C18.0817 143.674 18.043 143.596 18.0236 143.519L17.9656 142.996C17.7333 140.867 17.5397 139.163 17.501 137.828C17.501 137.673 17.6171 137.557 17.7526 137.537C28.5736 136.298 57.7071 132.504 63.4176 131.769C63.5531 131.749 63.6886 131.827 63.7274 131.962C64.1532 133.24 64.463 134.943 64.6372 137.169C64.6565 137.324 64.5404 137.46 64.3855 137.479L64.2113 137.498C56.3908 138.563 32.5807 141.777 18.3334 143.79C18.3527 143.77 18.3334 143.77 18.314 143.77ZM18.1011 138.079C18.1591 139.357 18.3334 140.944 18.5657 142.938L18.585 143.17C32.813 141.176 56.1778 138.002 64.0564 136.937C63.8822 135.021 63.6306 133.53 63.2628 132.369C57.0683 133.162 28.9801 136.821 18.1011 138.079Z" fill="#202D37"/>
<path d="M25.3014 151.708C24.7593 151.708 24.3141 151.669 23.985 151.611C23.7721 151.573 23.1333 151.418 22.9204 150.856C22.7268 150.314 22.4171 149.23 22.2235 148.262C21.875 146.52 22.0105 145.939 22.3203 145.61C23.2301 144.643 28.7277 144.023 30.7215 144.197C31.5539 144.275 31.9992 144.449 32.2315 144.817C32.8122 145.688 33.7607 149.134 32.638 150.295C31.883 151.031 27.7598 151.708 25.3014 151.708ZM24.1399 150.256C25.2239 150.682 30.8958 149.869 31.6701 149.308C31.9992 148.901 31.6507 146.52 31.1474 145.61C30.7796 145.475 29.3859 145.417 27.1984 145.668C25.1078 145.92 23.7527 146.288 23.3656 146.481C23.3075 147.062 23.7334 149.056 24.1399 150.256ZM22.8042 146.036L23.2882 146.501L22.8042 146.036Z" fill="#202D37"/>
<path d="M35.9875 147.139C48.2023 142.377 64.2499 137.77 68.6248 136.57C72.9996 135.351 75.5161 133.841 77.7423 139.358C79.9491 144.875 83.1625 154.205 84.4207 156.973C85.679 159.741 86.8017 162.103 79.6781 164.581C72.5544 167.059 57.0101 171.975 50.5833 174.724C44.1565 177.473 41.9691 178.364 38.4847 170.233C35.0003 162.103 33.471 157.573 32.1741 153.605C30.8577 149.598 33.3549 148.165 35.9875 147.139Z" fill="#FBD931"/>
<path d="M68.1431 153.87C70.4101 153.329 71.8097 151.053 71.2693 148.786C70.7288 146.519 68.4529 145.12 66.1858 145.66C63.9188 146.201 62.5192 148.476 63.0597 150.743C63.6001 153.01 65.8761 154.41 68.1431 153.87Z" fill="#FFFEF2"/>
<path d="M67.1729 154.668C64.4822 154.668 62.2754 152.481 62.2754 149.771C62.2754 147.08 64.4628 144.873 67.1729 144.873C69.883 144.873 72.0704 147.06 72.0704 149.771C72.0704 152.481 69.8636 154.668 67.1729 154.668ZM67.1729 146.228C65.2178 146.228 63.6304 147.815 63.6304 149.771C63.6304 151.726 65.2178 153.313 67.1729 153.313C69.128 153.313 70.7154 151.726 70.7154 149.771C70.7154 147.815 69.128 146.228 67.1729 146.228Z" fill="#202D37"/>
<path d="M73.0384 153.025C72.9803 153.025 72.9222 153.025 72.8642 153.025C70.1734 152.928 68.0441 150.663 68.1409 147.973C68.2377 145.282 70.5025 143.152 73.1933 143.249C75.884 143.346 78.0133 145.611 77.9165 148.302C77.8391 150.934 75.6517 153.025 73.0384 153.025ZM69.4959 147.992C69.4572 148.94 69.8056 149.831 70.4444 150.528C71.0833 151.225 71.9737 151.612 72.9029 151.651C73.8514 151.689 74.7419 151.341 75.4388 150.702C76.1356 150.063 76.5228 149.173 76.5615 148.244C76.6196 146.288 75.0903 144.643 73.1352 144.585C71.1994 144.508 69.554 146.056 69.4959 147.992Z" fill="#202D37"/>
</svg>
